<svg width="24" height="24" viewBox="0 0 24 24" fill="none" xmlns="http://www.w3.org/2000/svg">
<rect width="24" height="24" fill="#F5F5F5"/>
<g id="Component">
<path d="M-15822 -3804C-15822 -3805.1 -15821.1 -3806 -15820 -3806H1996C1997.11 -3806 1998 -3805.1 1998 -3804V2768C1998 2769.1 1997.11 2770 1996 2770H-15820C-15821.1 2770 -15822 2769.1 -15822 2768V-3804Z" fill="white"/>
<path d="M-15820 -3806V-3805H1996V-3806V-3807H-15820V-3806ZM1998 -3804H1997V2768H1998H1999V-3804H1998ZM1996 2770V2769H-15820V2770V2771H1996V2770ZM-15822 2768H-15821V-3804H-15822H-15823V2768H-15822ZM-15820 2770V2769C-15820.6 2769 -15821 2768.55 -15821 2768H-15822H-15823C-15823 2769.66 -15821.7 2771 -15820 2771V2770ZM1998 2768H1997C1997 2768.55 1996.55 2769 1996 2769V2770V2771C1997.66 2771 1999 2769.66 1999 2768H1998ZM1996 -3806V-3805C1996.55 -3805 1997 -3804.55 1997 -3804H1998H1999C1999 -3805.66 1997.66 -3807 1996 -3807V-3806ZM-15820 -3806V-3807C-15821.7 -3807 -15823 -3805.66 -15823 -3804H-15822H-15821C-15821 -3804.55 -15820.6 -3805 -15820 -3805V-3806Z" fill="black" fill-opacity="0.1"/>
<g id="Social Media Icon by Orginal">
<rect x="-63.5" y="-15.5" width="247" height="55" rx="4.5" stroke="#9747FF" stroke-dasharray="10 5"/>
<g id="Property 1=Google Logo">
<g id="logo googleg 48dp">
<path id="Shape" fill-rule="evenodd" clip-rule="evenodd" d="M23.04 12.2605C23.04 11.445 22.9668 10.6609 22.8309 9.9082H12V14.3566H18.1891C17.9225 15.7941 17.1123 17.0121 15.8943 17.8275V20.713H19.6109C21.7855 18.7109 23.04 15.7627 23.04 12.2605Z" fill="#4285F4"/>
<path id="Shape_2" fill-rule="evenodd" clip-rule="evenodd" d="M11.9995 23.5005C15.1045 23.5005 17.7077 22.4708 19.6104 20.7144L15.8938 17.829C14.864 18.519 13.5467 18.9267 11.9995 18.9267C9.00425 18.9267 6.46902 16.9037 5.5647 14.1855H1.72266V17.1651C3.61493 20.9235 7.50402 23.5005 11.9995 23.5005Z" fill="#34A853"/>
<path id="Shape_3" fill-rule="evenodd" clip-rule="evenodd" d="M5.56523 14.1855C5.33523 13.4955 5.20455 12.7584 5.20455 12.0005C5.20455 11.2425 5.33523 10.5055 5.56523 9.81548V6.83594H1.72318C0.944318 8.38844 0.5 10.1448 0.5 12.0005C0.5 13.8562 0.944318 15.6125 1.72318 17.165L5.56523 14.1855Z" fill="#FBBC05"/>
<path id="Shape_4" fill-rule="evenodd" clip-rule="evenodd" d="M11.9995 5.07386C13.6879 5.07386 15.2038 5.65409 16.3956 6.79364L19.694 3.49523C17.7024 1.63955 15.0992 0.5 11.9995 0.5C7.50402 0.5 3.61493 3.07705 1.72266 6.83545L5.5647 9.815C6.46902 7.09682 9.00425 5.07386 11.9995 5.07386Z" fill="#EA4335"/>
</g>
</g>
</g>
</g>
</svg>
