<svg width="24" height="24" viewBox="0 0 24 24" fill="none" xmlns="http://www.w3.org/2000/svg">
<rect width="24" height="24" fill="#F5F5F5"/>
<g id="Component">
<path d="M-15774 -3804C-15774 -3805.1 -15773.1 -3806 -15772 -3806H2044C2045.11 -3806 2046 -3805.1 2046 -3804V2768C2046 2769.1 2045.11 2770 2044 2770H-15772C-15773.1 2770 -15774 2769.1 -15774 2768V-3804Z" fill="white"/>
<path d="M-15772 -3806V-3805H2044V-3806V-3807H-15772V-3806ZM2046 -3804H2045V2768H2046H2047V-3804H2046ZM2044 2770V2769H-15772V2770V2771H2044V2770ZM-15774 2768H-15773V-3804H-15774H-15775V2768H-15774ZM-15772 2770V2769C-15772.6 2769 -15773 2768.55 -15773 2768H-15774H-15775C-15775 2769.66 -15773.7 2771 -15772 2771V2770ZM2046 2768H2045C2045 2768.55 2044.55 2769 2044 2769V2770V2771C2045.66 2771 2047 2769.66 2047 2768H2046ZM2044 -3806V-3805C2044.55 -3805 2045 -3804.55 2045 -3804H2046H2047C2047 -3805.66 2045.66 -3807 2044 -3807V-3806ZM-15772 -3806V-3807C-15773.7 -3807 -15775 -3805.66 -15775 -3804H-15774H-15773C-15773 -3804.55 -15772.6 -3805 -15772 -3805V-3806Z" fill="black" fill-opacity="0.1"/>
<g id="Social Media Icon by Orginal">
<rect x="-15.5" y="-15.5" width="247" height="55" rx="4.5" stroke="#9747FF" stroke-dasharray="10 5"/>
<g id="Property 1=Facebook Logo" clip-path="url(#clip0_24_68419)">
<path id="path14" d="M23.5 12.0694C23.5 5.71811 18.3513 0.569391 12 0.569391C5.64872 0.569391 0.5 5.71811 0.5 12.0694C0.5 17.8094 4.70538 22.567 10.2031 23.4297V15.3936H7.2832V12.0694H10.2031V9.5358C10.2031 6.65361 11.92 5.06158 14.5468 5.06158C15.805 5.06158 17.1211 5.28619 17.1211 5.28619V8.11627H15.671C14.2424 8.11627 13.7969 9.00273 13.7969 9.91218V12.0694H16.9863L16.4765 15.3936H13.7969V23.4297C19.2946 22.567 23.5 17.8094 23.5 12.0694Z" fill="#0866FF"/>
</g>
</g>
</g>
<defs>
<clipPath id="clip0_24_68419">
<rect width="24" height="24" fill="white"/>
</clipPath>
</defs>
</svg>
