<svg width="24" height="24" viewBox="0 0 24 24" fill="none" xmlns="http://www.w3.org/2000/svg">
<rect width="24" height="24" fill="#F5F5F5"/>
<g id="Component">
<path d="M-15870 -3804C-15870 -3805.1 -15869.1 -3806 -15868 -3806H1948C1949.11 -3806 1950 -3805.1 1950 -3804V2768C1950 2769.1 1949.11 2770 1948 2770H-15868C-15869.1 2770 -15870 2769.1 -15870 2768V-3804Z" fill="white"/>
<path d="M-15868 -3806V-3805H1948V-3806V-3807H-15868V-3806ZM1950 -3804H1949V2768H1950H1951V-3804H1950ZM1948 2770V2769H-15868V2770V2771H1948V2770ZM-15870 2768H-15869V-3804H-15870H-15871V2768H-15870ZM-15868 2770V2769C-15868.6 2769 -15869 2768.55 -15869 2768H-15870H-15871C-15871 2769.66 -15869.7 2771 -15868 2771V2770ZM1950 2768H1949C1949 2768.55 1948.55 2769 1948 2769V2770V2771C1949.66 2771 1951 2769.66 1951 2768H1950ZM1948 -3806V-3805C1948.55 -3805 1949 -3804.55 1949 -3804H1950H1951C1951 -3805.66 1949.66 -3807 1948 -3807V-3806ZM-15868 -3806V-3807C-15869.7 -3807 -15871 -3805.66 -15871 -3804H-15870H-15869C-15869 -3804.55 -15868.6 -3805 -15868 -3805V-3806Z" fill="black" fill-opacity="0.1"/>
<g id="Social Media Icon by Orginal">
<rect x="-111.5" y="-15.5" width="247" height="55" rx="4.5" stroke="#9747FF" stroke-dasharray="10 5"/>
<g id="Property 1=Apple Logo">
<path id="path4" d="M20.4673 18.924C20.1195 19.7275 19.7078 20.4672 19.2308 21.1472C18.5805 22.0743 18.0481 22.716 17.6378 23.0724C17.0018 23.6573 16.3204 23.9568 15.5906 23.9739C15.0667 23.9739 14.435 23.8248 13.6996 23.5224C12.9617 23.2214 12.2837 23.0724 11.6637 23.0724C11.0135 23.0724 10.3161 23.2214 9.5702 23.5224C8.82315 23.8248 8.22133 23.9824 7.7612 23.998C7.06143 24.0278 6.36393 23.7197 5.6677 23.0724C5.22333 22.6848 4.66752 22.0204 4.00167 21.0791C3.28727 20.0739 2.69994 18.9084 2.23981 17.5795C1.74703 16.1442 1.5 14.7543 1.5 13.4087C1.5 11.8673 1.83306 10.5379 2.50019 9.42385C3.02448 8.529 3.72199 7.82312 4.59497 7.30493C5.46795 6.78674 6.4112 6.52267 7.42701 6.50578C7.98282 6.50578 8.7117 6.6777 9.61748 7.01559C10.5207 7.35462 11.1006 7.52655 11.3549 7.52655C11.545 7.52655 12.1893 7.32552 13.2815 6.92473C14.3143 6.55305 15.186 6.39916 15.9001 6.45978C17.8352 6.61595 19.289 7.37876 20.2558 8.75303C18.5252 9.80163 17.6691 11.2703 17.6861 13.1544C17.7017 14.622 18.2341 15.8432 19.2804 16.8129C19.7546 17.2629 20.2842 17.6107 20.8734 17.8578C20.7456 18.2283 20.6107 18.5832 20.4673 18.924ZM16.0293 1.46013C16.0293 2.61039 15.6091 3.68439 14.7714 4.67847C13.7606 5.86023 12.538 6.54311 11.2121 6.43536C11.1952 6.29736 11.1854 6.15213 11.1854 5.99951C11.1854 4.89526 11.6661 3.71349 12.5198 2.74724C12.946 2.25801 13.488 1.85122 14.1454 1.52671C14.8013 1.20705 15.4217 1.03027 16.0052 1C16.0222 1.15377 16.0293 1.30755 16.0293 1.46012V1.46013Z" fill="black"/>
</g>
</g>
</g>
</svg>
