<svg width="22" height="22" viewBox="0 0 22 22" fill="none" xmlns="http://www.w3.org/2000/svg">
<rect width="22" height="22" fill="#F5F5F5"/>
<g id="Profile Screen">
<rect width="1440" height="1217" transform="translate(-1074.81 -596.694)" fill="#F8F9FA"/>
<g id="Content Cards">
<g id="Frame 1171275953">
<g id="Profile Information">
<g id="Details">
<g id="Social media">
<g id="IONIcon/L/logo/twitter" clip-path="url(#clip0_24_68419)">
<path id="Vector" d="M20.3999 4.55695C19.6594 4.88251 18.8759 5.097 18.0741 5.19363C18.9167 4.69443 19.5503 3.90138 19.8562 2.96319C19.0596 3.43449 18.1895 3.76518 17.2832 3.94109C16.9016 3.53642 16.4426 3.21449 15.9342 2.99488C15.4257 2.77526 14.8785 2.66255 14.3256 2.66358C12.0874 2.66358 10.2761 4.46957 10.2761 6.69584C10.2745 7.00551 10.3096 7.31425 10.3806 7.61548C8.77562 7.53935 7.20403 7.12511 5.76637 6.39925C4.3287 5.67339 3.05661 4.6519 2.03149 3.40012C1.67185 4.01354 1.48165 4.71344 1.48077 5.42666C1.48077 6.82484 2.20176 8.06074 3.29043 8.78479C2.64542 8.76931 2.01363 8.59658 1.44869 8.28128V8.33122C1.44869 10.287 2.84707 11.9141 4.69785 12.2844C4.34982 12.3783 3.99117 12.4258 3.63098 12.4259C3.3754 12.4263 3.12039 12.4013 2.86969 12.351C3.38421 13.9531 4.8817 15.1182 6.65557 15.1515C5.21417 16.2754 3.44451 16.8829 1.62472 16.8784C1.30171 16.878 0.978992 16.8585 0.658203 16.8202C2.50947 18.0162 4.66143 18.6489 6.85793 18.6428C14.317 18.6428 18.392 12.4966 18.392 7.16606C18.392 6.99129 18.3875 6.81652 18.3793 6.64591C19.1702 6.07667 19.8545 5.36928 20.3999 4.55695Z" fill="#1A1A2E"/>
</g>
</g>
</g>
</g>
</g>
</g>
</g>
<defs>
<clipPath id="clip0_24_68419">
<rect width="21.0578" height="21.3057" fill="white"/>
</clipPath>
</defs>
</svg>
