<svg width="36" height="36" viewBox="0 0 36 36" fill="none" xmlns="http://www.w3.org/2000/svg">
<rect width="36" height="36" fill="#F5F5F5"/>
<g id="Admin Platform Health" clip-path="url(#clip0_24_68419)">
<rect width="1440" height="2283" transform="translate(-308.666 -236.668)" fill="white"/>
<g id="App">
<rect width="1441" height="3142" transform="translate(-308.666 -236.668)" fill="#F8F9FA"/>
<g id="Container">
<g id="Container_2">
<g id="PlatformHealthDashboard">
<g id="Container (margin)">
<g id="Container_3">
<g id="Container_4">
<mask id="path-1-inside-1_24_68419" fill="white">
<path d="M-20.666 -2.66796C-20.666 -10.4 -14.398 -16.668 -6.66602 -16.668H1110.33C1118.07 -16.668 1124.33 -10.4 1124.33 -2.66797V194.332C1124.33 202.064 1118.07 208.332 1110.33 208.332H-6.66603C-14.398 208.332 -20.666 202.064 -20.666 194.332V-2.66796Z"/>
</mask>
<path d="M-20.666 -2.66796C-20.666 -10.4 -14.398 -16.668 -6.66602 -16.668H1110.33C1118.07 -16.668 1124.33 -10.4 1124.33 -2.66797V194.332C1124.33 202.064 1118.07 208.332 1110.33 208.332H-6.66603C-14.398 208.332 -20.666 202.064 -20.666 194.332V-2.66796Z" fill="white"/>
<path d="M-6.66602 -16.668V-16.0013H1110.33V-16.668V-17.3346H-6.66602V-16.668ZM1124.33 -2.66797H1123.67V194.332H1124.33H1125V-2.66797H1124.33ZM1110.33 208.332V207.665H-6.66603V208.332V208.999H1110.33V208.332ZM-20.666 194.332H-19.9993V-2.66796H-20.666H-21.3327V194.332H-20.666ZM-6.66603 208.332V207.665C-14.0298 207.665 -19.9993 201.696 -19.9993 194.332H-20.666H-21.3327C-21.3327 202.432 -14.7662 208.999 -6.66603 208.999V208.332ZM1124.33 194.332H1123.67C1123.67 201.696 1117.7 207.665 1110.33 207.665V208.332V208.999C1118.43 208.999 1125 202.432 1125 194.332H1124.33ZM1110.33 -16.668V-16.0013C1117.7 -16.0013 1123.67 -10.0318 1123.67 -2.66797H1124.33H1125C1125 -10.7681 1118.43 -17.3346 1110.33 -17.3346V-16.668ZM-6.66602 -16.668V-17.3346C-14.7662 -17.3346 -21.3327 -10.7681 -21.3327 -2.66796H-20.666H-19.9993C-19.9993 -10.0318 -14.0298 -16.0013 -6.66602 -16.0013V-16.668Z" fill="#1D4E8A" fill-opacity="0.12" mask="url(#path-1-inside-1_24_68419)"/>
<g id="Container_5">
<g id="Container_6">
<g id="PlatformLogo">
<path d="M0 10C0 4.47715 4.47715 0 10 0H26C31.5228 0 36 4.47715 36 10V26C36 31.5228 31.5228 36 26 36H10C4.47715 36 0 31.5228 0 26V10Z" fill="#0A66C2"/>
<path id="in" d="M13.6641 21.5V15.5H15.3281V21.5H13.6641ZM14.5 14.7266C14.2526 14.7266 14.0404 14.6445 13.8633 14.4805C13.6888 14.3138 13.6016 14.1146 13.6016 13.8828C13.6016 13.6536 13.6888 13.457 13.8633 13.293C14.0404 13.1263 14.2526 13.043 14.5 13.043C14.7474 13.043 14.9583 13.1263 15.1328 13.293C15.3099 13.457 15.3984 13.6536 15.3984 13.8828C15.3984 14.1146 15.3099 14.3138 15.1328 14.4805C14.9583 14.6445 14.7474 14.7266 14.5 14.7266ZM18.3252 18.0313V21.5H16.6611V15.5H18.2471V16.5586H18.3174C18.4502 16.2096 18.6729 15.9336 18.9854 15.7305C19.2979 15.5247 19.6768 15.4219 20.1221 15.4219C20.5387 15.4219 20.902 15.513 21.2119 15.6953C21.5218 15.8776 21.7627 16.138 21.9346 16.4766C22.1064 16.8125 22.1924 17.2135 22.1924 17.6797V21.5H20.5283V17.9766C20.5309 17.6094 20.4372 17.3229 20.2471 17.1172C20.057 16.9089 19.7952 16.8047 19.4619 16.8047C19.238 16.8047 19.04 16.8529 18.8682 16.9492C18.6989 17.0456 18.5661 17.1862 18.4697 17.3711C18.376 17.5534 18.3278 17.7734 18.3252 18.0313Z" fill="white"/>
</g>
</g>
</g>
</g>
</g>
</g>
</g>
</g>
</g>
</g>
</g>
<defs>
<clipPath id="clip0_24_68419">
<rect width="1440" height="2283" fill="white" transform="translate(-308.666 -236.668)"/>
</clipPath>
</defs>
</svg>
