<svg width="26" height="26" viewBox="0 0 26 26" fill="none" xmlns="http://www.w3.org/2000/svg">
<rect width="26" height="26" fill="#F5F5F5"/>
<g id="Dashboard Screen">
<rect x="-320" y="-641.327" width="1443" height="1351" fill="#F8F9FA"/>
<rect x="-319.75" y="-641.077" width="1442.5" height="1350.5" stroke="#1A1A2E" stroke-opacity="0.14" stroke-width="0.5"/>
<g id="Content">
<g id="Content_2">
<g id="Container">
<g id="Frame 1171275918">
<g id="Frame 1171275917">
<g id="Frame 1171275914">
<g id="Group 1171275927">
<g id="simple-icons:fiverr" clip-path="url(#clip0_4_1151)">
<path id="Vector" d="M24.2939 16.4622C24.4319 16.4623 24.5686 16.4353 24.6961 16.3826C24.8237 16.3299 24.9396 16.2526 25.0373 16.1552C25.135 16.0577 25.2125 15.9419 25.2654 15.8145C25.3183 15.6871 25.3457 15.5504 25.3458 15.4124C25.3459 15.2745 25.3189 15.1378 25.2662 15.0102C25.2135 14.8827 25.1362 14.7668 25.0388 14.6691C24.9413 14.5714 24.8255 14.4939 24.6981 14.441C24.5707 14.3881 24.434 14.3607 24.2961 14.3606C24.0174 14.3603 23.75 14.4708 23.5527 14.6676C23.3555 14.8645 23.2445 15.1316 23.2442 15.4103C23.2439 15.689 23.3544 15.9564 23.5512 16.1537C23.7481 16.3509 24.0153 16.4619 24.2939 16.4622ZM23.2421 12.5494H22.3444C21.7678 12.5494 21.4573 12.9824 21.4573 13.7027V16.3069H19.757V12.5494H19.0347C18.457 12.5494 18.1476 12.9824 18.1476 13.7027V16.3069H16.4473V11.1596H18.1476V11.9411C18.4264 11.3349 18.8087 11.1596 19.3758 11.1596H21.4584V11.9411C21.7372 11.3349 22.1184 11.1596 22.6855 11.1596H23.2421V12.5494ZM16.0756 14.1346H12.5282C12.6211 14.7112 12.9823 15.0407 13.5906 15.0407C14.0447 15.0407 14.3637 14.8559 14.4672 14.5264L15.9721 14.9488C15.6014 15.8444 14.6837 16.3893 13.5906 16.3893C11.7446 16.3893 10.8987 14.9583 10.8987 13.7333C10.8987 12.5294 11.6411 11.0878 13.4861 11.0878C15.4461 11.0878 16.0956 12.5494 16.0956 13.6308C16.0956 13.8674 16.0851 14.0216 16.0745 14.1346H16.0756ZM14.426 13.1366C14.3837 12.6931 14.0648 12.2812 13.4871 12.2812C12.9506 12.2812 12.6317 12.5188 12.5282 13.1366H14.426ZM7.92901 16.3059H9.42441L11.2905 11.1586H9.57965L8.67143 14.1547L7.7442 11.1586H6.04075L7.92901 16.3059ZM0.958916 16.3059H2.65075V12.5484H4.26021V16.3059H5.94042V11.1586H2.65075V10.8396C2.65075 10.489 2.89893 10.2736 3.29073 10.2736H4.26021V8.88379H3.00981C1.78265 8.88379 0.95786 9.63571 0.95786 10.7372V11.1596H0V12.5494H0.958916V16.3069V16.3059Z" fill="#1A1A2E"/>
</g>
</g>
</g>
</g>
</g>
</g>
</g>
</g>
</g>
<defs>
<clipPath id="clip0_4_1151">
<rect width="25.3458" height="25.3458" fill="white"/>
</clipPath>
</defs>
</svg>
