<svg width="18" height="18" viewBox="0 0 18 18" fill="none" xmlns="http://www.w3.org/2000/svg">
<rect width="18" height="18" fill="#F5F5F5"/>
<g id="Profile Screen">
<rect width="1440" height="1217" transform="translate(-1120.44 -598.469)" fill="#F8F9FA"/>
<g id="Content Cards">
<g id="Frame 1171275953">
<g id="Profile Information">
<g id="Details">
<g id="Social media">
<g id="IONIcon/L/logo/instagram">
<path id="Vector" d="M11.9738 2.40387C12.8215 2.40644 13.6337 2.74827 14.2331 3.35473C14.8325 3.96119 15.1704 4.78299 15.1729 5.64064V12.1135C15.1704 12.9711 14.8325 13.7929 14.2331 14.3994C13.6337 15.0059 12.8215 15.3477 11.9738 15.3503H5.57622C4.72854 15.3477 3.9163 15.0059 3.3169 14.3994C2.71749 13.7929 2.37963 12.9711 2.3771 12.1135V5.64064C2.37963 4.78299 2.71749 3.96119 3.3169 3.35473C3.9163 2.74827 4.72854 2.40644 5.57622 2.40387H11.9738ZM11.9738 1.10938H5.57622C3.11296 1.10938 1.09766 3.14839 1.09766 5.64064V12.1135C1.09766 14.6057 3.11296 16.6448 5.57622 16.6448H11.9738C14.437 16.6448 16.4523 14.6057 16.4523 12.1135V5.64064C16.4523 3.14839 14.437 1.10938 11.9738 1.10938Z" fill="#1A1A2E"/>
<path id="Vector_2" d="M12.9323 5.64065C12.7425 5.64065 12.557 5.58371 12.3992 5.47702C12.2413 5.37033 12.1183 5.21868 12.0457 5.04126C11.9731 4.86384 11.9541 4.66861 11.9911 4.48027C12.0281 4.29192 12.1195 4.11891 12.2537 3.98312C12.3879 3.84733 12.5589 3.75485 12.7451 3.71739C12.9313 3.67992 13.1242 3.69915 13.2996 3.77264C13.4749 3.84613 13.6248 3.97058 13.7303 4.13025C13.8357 4.28993 13.892 4.47765 13.892 4.66969C13.8923 4.79728 13.8676 4.92366 13.8195 5.04159C13.7714 5.15951 13.7007 5.26666 13.6115 5.35688C13.5223 5.44709 13.4164 5.5186 13.2999 5.5673C13.1833 5.616 13.0584 5.64093 12.9323 5.64065Z" fill="#1A1A2E"/>
<path id="Vector_3" d="M8.77422 6.28766C9.28039 6.28766 9.77519 6.43953 10.196 6.72405C10.6169 7.00857 10.9449 7.41297 11.1386 7.88611C11.3323 8.35925 11.383 8.87988 11.2843 9.38216C11.1855 9.88445 10.9418 10.3458 10.5839 10.708C10.226 11.0701 9.76994 11.3167 9.2735 11.4166C8.77706 11.5165 8.26248 11.4652 7.79484 11.2693C7.32721 11.0733 6.92751 10.7414 6.6463 10.3156C6.36509 9.88976 6.21499 9.38913 6.21499 8.87701C6.21572 8.1905 6.48558 7.53231 6.96537 7.04688C7.44516 6.56144 8.09569 6.2884 8.77422 6.28766ZM8.77422 4.99316C8.015 4.99316 7.27283 5.22095 6.64157 5.64771C6.0103 6.07447 5.51829 6.68105 5.22775 7.39073C4.93721 8.1004 4.86119 8.88132 5.00931 9.63471C5.15742 10.3881 5.52302 11.0801 6.05987 11.6233C6.59672 12.1665 7.2807 12.5364 8.02533 12.6862C8.76996 12.8361 9.54179 12.7592 10.2432 12.4652C10.9446 12.1713 11.5442 11.6735 11.966 11.0348C12.3878 10.3961 12.6129 9.64516 12.6129 8.87701C12.6129 7.84695 12.2085 6.85908 11.4886 6.13072C10.7687 5.40235 9.7923 4.99316 8.77422 4.99316Z" fill="#1A1A2E"/>
</g>
</g>
</g>
</g>
</g>
</g>
</g>
</svg>
