<svg width="41" height="25" viewBox="0 0 41 25" fill="none" xmlns="http://www.w3.org/2000/svg">
<rect width="41" height="25" fill="#F5F5F5"/>
<g id="Landing Page">
<rect width="1440" height="7000" transform="translate(-315.086 -742.51)" fill="white"/>
<g id="Container">
<g id="Frame 1171276243" clip-path="url(#clip0_4_1151)">
<rect width="480" height="62" transform="translate(-280.086 -19.0518)" fill="white" fill-opacity="0.03"/>
<g id="Frame 1171276236">
<path id="Upwork logo" d="M31.1671 14.559C27.9989 14.559 25.8957 12.1764 25.31 11.2533C26.0643 5.41565 28.2563 3.5782 31.1671 3.5782C34.0779 3.5782 36.2699 5.80249 36.2699 9.06419C36.2699 12.3259 34.0424 14.559 31.1671 14.559ZM31.1671 0C25.9933 0 23.1091 3.27049 22.266 6.63769C21.3253 4.92332 20.6331 2.6287 20.0918 0.492332H12.939V9.12573C12.939 12.2556 11.4658 14.5678 8.59935 14.5678C5.7329 14.5678 4.08225 12.2556 4.08225 9.12573L4.11775 0.492332H0V9.12573C0 11.6489 0.843074 13.926 2.37836 15.5612C3.95801 17.2492 6.1145 18.1196 8.60823 18.1196C13.5868 18.1196 17.0567 14.4183 17.0567 9.12573V3.32324C17.5714 5.23103 18.8139 8.89715 21.1745 12.1149L18.9647 24.3353H23.1535L24.6089 15.6843C25.0881 16.0711 25.594 16.4228 26.1353 16.7217C27.5375 17.5833 29.1526 18.058 30.8033 18.1108C30.8033 18.1108 31.0606 18.1196 31.1937 18.1196C36.3232 18.1196 40.3966 14.2688 40.3966 9.07298C40.3966 3.87712 36.2966 0 31.1671 0Z" fill="white"/>
</g>
</g>
</g>
</g>
<defs>
<clipPath id="clip0_4_1151">
<rect width="480" height="62" fill="white" transform="translate(-280.086 -19.0518)"/>
</clipPath>
</defs>
</svg>
