<svg width="36" height="24" viewBox="0 0 36 24" fill="none" xmlns="http://www.w3.org/2000/svg">
<rect width="36" height="24" fill="#F5F5F5"/>
<g id="Landing Page" clip-path="url(#clip0_4_1151)">
<rect width="1440" height="7000" transform="translate(-803.344 -4280)" fill="white"/>
<g id="Section">
<rect width="1468" height="1177" transform="translate(-822.344 -303)" fill="#F0F4F9"/>
<g id="Container">
<g id="Inline content">
<g id="Container_2">
<mask id="path-1-inside-1_4_1151" fill="white">
<path d="M-281.344 -2C-281.344 -9.73199 -275.076 -16 -267.344 -16H90.3333C98.0653 -16 104.333 -9.73199 104.333 -2V26C104.333 33.732 98.0653 40 90.3333 40H-267.344C-275.076 40 -281.344 33.732 -281.344 26V-2Z"/>
</mask>
<path d="M-281.344 -2C-281.344 -9.73199 -275.076 -16 -267.344 -16H90.3333C98.0653 -16 104.333 -9.73199 104.333 -2V26C104.333 33.732 98.0653 40 90.3333 40H-267.344C-275.076 40 -281.344 33.732 -281.344 26V-2Z" fill="#F8F9FA"/>
<path d="M-267.344 -16V-15.3333H90.3333V-16V-16.6667H-267.344V-16ZM104.333 -2H103.667V26H104.333H105V-2H104.333ZM90.3333 40V39.3333H-267.344V40V40.6667H90.3333V40ZM-281.344 26H-280.677V-2H-281.344H-282.01V26H-281.344ZM-267.344 40V39.3333C-274.708 39.3333 -280.677 33.3638 -280.677 26H-281.344H-282.01C-282.01 34.1002 -275.444 40.6667 -267.344 40.6667V40ZM104.333 26H103.667C103.667 33.3638 97.6971 39.3333 90.3333 39.3333V40V40.6667C98.4335 40.6667 105 34.1002 105 26H104.333ZM90.3333 -16V-15.3333C97.6971 -15.3333 103.667 -9.3638 103.667 -2H104.333H105C105 -10.1002 98.4335 -16.6667 90.3333 -16.6667V-16ZM-267.344 -16V-16.6667C-275.444 -16.6667 -282.01 -10.1002 -282.01 -2H-281.344H-280.677C-280.677 -9.3638 -274.708 -15.3333 -267.344 -15.3333V-16Z" fill="#1D4E8A" fill-opacity="0.1" mask="url(#path-1-inside-1_4_1151)"/>
<g id="Container_3">
<mask id="path-3-inside-2_4_1151" fill="white">
<path d="M-10.6667 3.3335C-10.6667 -1.08478 -7.08503 -4.6665 -2.66675 -4.6665H79.6666C84.0849 -4.6665 87.6666 -1.08478 87.6666 3.3335V20.6668C87.6666 25.0851 84.0849 28.6668 79.6666 28.6668H-2.66674C-7.08502 28.6668 -10.6667 25.0851 -10.6667 20.6668V3.3335Z"/>
</mask>
<path d="M-10.6667 3.3335C-10.6667 -1.08478 -7.08503 -4.6665 -2.66675 -4.6665H79.6666C84.0849 -4.6665 87.6666 -1.08478 87.6666 3.3335V20.6668C87.6666 25.0851 84.0849 28.6668 79.6666 28.6668H-2.66674C-7.08502 28.6668 -10.6667 25.0851 -10.6667 20.6668V3.3335Z" fill="#F0F5FC"/>
<path d="M-2.66675 -4.6665V-3.99984H79.6666V-4.6665V-5.33317H-2.66675V-4.6665ZM87.6666 3.3335H86.9999V20.6668H87.6666H88.3333V3.3335H87.6666ZM79.6666 28.6668V28.0002H-2.66674V28.6668V29.3335H79.6666V28.6668ZM-10.6667 20.6668H-10.0001V3.3335H-10.6667H-11.3334V20.6668H-10.6667ZM-2.66674 28.6668V28.0002C-6.71683 28.0002 -10.0001 24.7169 -10.0001 20.6668H-10.6667H-11.3334C-11.3334 25.4533 -7.45321 29.3335 -2.66674 29.3335V28.6668ZM87.6666 20.6668H86.9999C86.9999 24.7169 83.7167 28.0002 79.6666 28.0002V28.6668V29.3335C84.4531 29.3335 88.3333 25.4533 88.3333 20.6668H87.6666ZM79.6666 -4.6665V-3.99984C83.7167 -3.99984 86.9999 -0.716591 86.9999 3.3335H87.6666H88.3333C88.3333 -1.45297 84.453 -5.33317 79.6666 -5.33317V-4.6665ZM-2.66675 -4.6665V-5.33317C-7.45322 -5.33317 -11.3334 -1.45297 -11.3334 3.3335H-10.6667H-10.0001C-10.0001 -0.716589 -6.71684 -3.99984 -2.66675 -3.99984V-4.6665Z" fill="#1D4E8A" fill-opacity="0.18" mask="url(#path-3-inside-2_4_1151)"/>
<g id="Icon - Visa" clip-path="url(#clip1_4_1151)">
<path id="Vector" d="M32 0H4C1.79086 0 0 1.79086 0 4V20C0 22.2091 1.79086 24 4 24H32C34.2091 24 36 22.2091 36 20V4C36 1.79086 34.2091 0 32 0Z" fill="#1A1F71"/>
<path id="VISA" d="M7.52983 7.54545L9.81499 14.7287H9.9027L12.1925 7.54545H14.4084L11.1491 17H8.57315L5.3093 7.54545H7.52983ZM17.5453 7.54545V17H15.5463V7.54545H17.5453ZM24.3188 10.2646C24.2819 9.89216 24.1234 9.60286 23.8433 9.39666C23.5632 9.19046 23.1831 9.08736 22.703 9.08736C22.3768 9.08736 22.1014 9.13352 21.8767 9.22585C21.652 9.3151 21.4797 9.43975 21.3596 9.59979C21.2427 9.75982 21.1842 9.94141 21.1842 10.1445C21.1781 10.3138 21.2135 10.4615 21.2904 10.5877C21.3704 10.7139 21.4797 10.8232 21.6182 10.9155C21.7567 11.0047 21.9167 11.0832 22.0983 11.1509C22.2799 11.2156 22.4738 11.271 22.68 11.3171L23.5294 11.5202C23.9418 11.6126 24.3203 11.7357 24.665 11.8896C25.0097 12.0434 25.3083 12.2327 25.5606 12.4574C25.813 12.6821 26.0084 12.9467 26.1469 13.2514C26.2885 13.5561 26.3608 13.9054 26.3639 14.2994C26.3608 14.878 26.2131 15.3796 25.9207 15.8043C25.6314 16.226 25.2129 16.5537 24.665 16.7876C24.1203 17.0185 23.4632 17.1339 22.6938 17.1339C21.9305 17.1339 21.2658 17.0169 20.6995 16.783C20.1363 16.5491 19.6962 16.2029 19.3792 15.7443C19.0653 15.2827 18.9006 14.7118 18.8852 14.0316H20.8195C20.8411 14.3486 20.9318 14.6133 21.0919 14.8256C21.255 15.0349 21.472 15.1934 21.7428 15.3011C22.0167 15.4058 22.326 15.4581 22.6707 15.4581C23.0093 15.4581 23.3032 15.4089 23.5525 15.3104C23.8048 15.2119 24.0003 15.0749 24.1388 14.8995C24.2773 14.7241 24.3465 14.5225 24.3465 14.2947C24.3465 14.0824 24.2834 13.9039 24.1572 13.7592C24.0341 13.6146 23.8525 13.4915 23.6125 13.3899C23.3755 13.2884 23.0847 13.196 22.74 13.1129L21.7105 12.8544C20.9134 12.6605 20.284 12.3574 19.8224 11.945C19.3607 11.5326 19.1314 10.977 19.1345 10.2784C19.1314 9.70597 19.2838 9.20585 19.5915 8.77805C19.9024 8.35026 20.3286 8.01634 20.8703 7.77628C21.412 7.53622 22.0275 7.41619 22.7169 7.41619C23.4186 7.41619 24.031 7.53622 24.5542 7.77628C25.0805 8.01634 25.4899 8.35026 25.7822 8.77805C26.0746 9.20585 26.2254 9.70135 26.2346 10.2646H24.3188ZM29.1222 17H26.9802L30.2441 7.54545H32.82L36.0793 17H33.9372L31.569 9.70597H31.4951L29.1222 17ZM28.9884 13.2837H34.048V14.8441H28.9884V13.2837Z" fill="white"/>
</g>
</g>
</g>
</g>
</g>
</g>
</g>
<defs>
<clipPath id="clip0_4_1151">
<rect width="1440" height="7000" fill="white" transform="translate(-803.344 -4280)"/>
</clipPath>
<clipPath id="clip1_4_1151">
<rect width="36" height="24" fill="white"/>
</clipPath>
</defs>
</svg>
