<svg width="36" height="24" viewBox="0 0 36 24" fill="none" xmlns="http://www.w3.org/2000/svg">
<rect width="36" height="24" fill="#F5F5F5"/>
<g id="Landing Page" clip-path="url(#clip0_4_1151)">
<rect width="1440" height="7000" transform="translate(-844.344 -4280)" fill="white"/>
<g id="Section">
<rect width="1468" height="1177" transform="translate(-863.344 -303)" fill="#F0F4F9"/>
<g id="Container">
<g id="Inline content">
<g id="Container_2">
<mask id="path-1-inside-1_4_1151" fill="white">
<path d="M-322.344 -2C-322.344 -9.73199 -316.076 -16 -308.344 -16H49.3333C57.0653 -16 63.3333 -9.73199 63.3333 -2V26C63.3333 33.732 57.0653 40 49.3333 40H-308.344C-316.076 40 -322.344 33.732 -322.344 26V-2Z"/>
</mask>
<path d="M-322.344 -2C-322.344 -9.73199 -316.076 -16 -308.344 -16H49.3333C57.0653 -16 63.3333 -9.73199 63.3333 -2V26C63.3333 33.732 57.0653 40 49.3333 40H-308.344C-316.076 40 -322.344 33.732 -322.344 26V-2Z" fill="#F8F9FA"/>
<path d="M-308.344 -16V-15.3333H49.3333V-16V-16.6667H-308.344V-16ZM63.3333 -2H62.6667V26H63.3333H64V-2H63.3333ZM49.3333 40V39.3333H-308.344V40V40.6667H49.3333V40ZM-322.344 26H-321.677V-2H-322.344H-323.01V26H-322.344ZM-308.344 40V39.3333C-315.708 39.3333 -321.677 33.3638 -321.677 26H-322.344H-323.01C-323.01 34.1002 -316.444 40.6667 -308.344 40.6667V40ZM63.3333 26H62.6667C62.6667 33.3638 56.6971 39.3333 49.3333 39.3333V40V40.6667C57.4335 40.6667 64 34.1002 64 26H63.3333ZM49.3333 -16V-15.3333C56.6971 -15.3333 62.6667 -9.3638 62.6667 -2H63.3333H64C64 -10.1002 57.4335 -16.6667 49.3333 -16.6667V-16ZM-308.344 -16V-16.6667C-316.444 -16.6667 -323.01 -10.1002 -323.01 -2H-322.344H-321.677C-321.677 -9.3638 -315.708 -15.3333 -308.344 -15.3333V-16Z" fill="#1D4E8A" fill-opacity="0.1" mask="url(#path-1-inside-1_4_1151)"/>
<g id="Container_3">
<mask id="path-3-inside-2_4_1151" fill="white">
<path d="M-51.6667 3.3335C-51.6667 -1.08478 -48.085 -4.6665 -43.6667 -4.6665H38.6666C43.0849 -4.6665 46.6666 -1.08478 46.6666 3.3335V20.6668C46.6666 25.0851 43.0849 28.6668 38.6666 28.6668H-43.6667C-48.085 28.6668 -51.6667 25.0851 -51.6667 20.6668V3.3335Z"/>
</mask>
<path d="M-51.6667 3.3335C-51.6667 -1.08478 -48.085 -4.6665 -43.6667 -4.6665H38.6666C43.0849 -4.6665 46.6666 -1.08478 46.6666 3.3335V20.6668C46.6666 25.0851 43.0849 28.6668 38.6666 28.6668H-43.6667C-48.085 28.6668 -51.6667 25.0851 -51.6667 20.6668V3.3335Z" fill="#F0F5FC"/>
<path d="M-43.6667 -4.6665V-3.99984H38.6666V-4.6665V-5.33317H-43.6667V-4.6665ZM46.6666 3.3335H45.9999V20.6668H46.6666H47.3333V3.3335H46.6666ZM38.6666 28.6668V28.0002H-43.6667V28.6668V29.3335H38.6666V28.6668ZM-51.6667 20.6668H-51.0001V3.3335H-51.6667H-52.3334V20.6668H-51.6667ZM-43.6667 28.6668V28.0002C-47.7168 28.0002 -51.0001 24.7169 -51.0001 20.6668H-51.6667H-52.3334C-52.3334 25.4533 -48.4532 29.3335 -43.6667 29.3335V28.6668ZM46.6666 20.6668H45.9999C45.9999 24.7169 42.7167 28.0002 38.6666 28.0002V28.6668V29.3335C43.4531 29.3335 47.3333 25.4533 47.3333 20.6668H46.6666ZM38.6666 -4.6665V-3.99984C42.7167 -3.99984 45.9999 -0.716591 45.9999 3.3335H46.6666H47.3333C47.3333 -1.45297 43.453 -5.33317 38.6666 -5.33317V-4.6665ZM-43.6667 -4.6665V-5.33317C-48.4532 -5.33317 -52.3334 -1.45297 -52.3334 3.3335H-51.6667H-51.0001C-51.0001 -0.716589 -47.7168 -3.99984 -43.6667 -3.99984V-4.6665Z" fill="#1D4E8A" fill-opacity="0.18" mask="url(#path-3-inside-2_4_1151)"/>
<g id="Icon - Mastercard" clip-path="url(#clip1_4_1151)">
<path id="Vector" d="M32 0H4C1.79086 0 0 1.79086 0 4V20C0 22.2091 1.79086 24 4 24H32C34.2091 24 36 22.2091 36 20V4C36 1.79086 34.2091 0 32 0Z" fill="#252525"/>
<path id="Vector_2" d="M14 19C17.866 19 21 15.866 21 12C21 8.13401 17.866 5 14 5C10.134 5 7 8.13401 7 12C7 15.866 10.134 19 14 19Z" fill="#EB001B"/>
<path id="Vector_3" d="M22 19C25.866 19 29 15.866 29 12C29 8.13401 25.866 5 22 5C18.134 5 15 8.13401 15 12C15 15.866 18.134 19 22 19Z" fill="#F79E1B"/>
<path id="Vector_4" d="M17.9999 6.7998C18.7282 7.45618 19.3106 8.25824 19.7092 9.15402C20.1078 10.0498 20.3137 11.0193 20.3137 11.9998C20.3137 12.9803 20.1078 13.9498 19.7092 14.8456C19.3106 15.7414 18.7282 16.5434 17.9999 17.1998C17.2715 16.5434 16.6892 15.7414 16.2906 14.8456C15.892 13.9498 15.686 12.9803 15.686 11.9998C15.686 11.0193 15.892 10.0498 16.2906 9.15402C16.6892 8.25824 17.2715 7.45618 17.9999 6.7998Z" fill="#FF5F00"/>
</g>
</g>
</g>
</g>
</g>
</g>
</g>
<defs>
<clipPath id="clip0_4_1151">
<rect width="1440" height="7000" fill="white" transform="translate(-844.344 -4280)"/>
</clipPath>
<clipPath id="clip1_4_1151">
<rect width="36" height="24" fill="white"/>
</clipPath>
</defs>
</svg>
