<svg width="44" height="44" viewBox="0 0 44 44" fill="none" xmlns="http://www.w3.org/2000/svg">
<rect width="44" height="44" fill="#F5F5F5"/>
<g id="ModalShell">
<rect width="896" height="503.333" transform="translate(-272 -276.667)" fill="#0A2A52" fill-opacity="0.65"/>
<g id="Container" filter="url(#filter0_d_24_68419)">
<g clip-path="url(#clip0_24_68419)">
<path d="M-44 -227.5C-44 -240.755 -33.2548 -251.5 -20 -251.5H372C385.255 -251.5 396 -240.755 396 -227.5V177.5C396 190.755 385.255 201.5 372 201.5H-20C-33.2548 201.5 -44 190.755 -44 177.5V-227.5Z" fill="white"/>
<g id="Container_2" clip-path="url(#clip1_24_68419)">
<g id="PaymentModal">
<g id="MomoMethodButton" filter="url(#filter1_d_24_68419)">
<mask id="path-2-inside-1_24_68419" fill="white">
<path d="M-20 -2C-20 -10.8366 -12.8366 -18 -4 -18H340.667C349.503 -18 356.667 -10.8366 356.667 -2V46C356.667 54.8366 349.503 62 340.667 62H-4.00001C-12.8366 62 -20 54.8366 -20 46V-2Z"/>
</mask>
<path d="M-20 -2C-20 -10.8366 -12.8366 -18 -4 -18H340.667C349.503 -18 356.667 -10.8366 356.667 -2V46C356.667 54.8366 349.503 62 340.667 62H-4.00001C-12.8366 62 -20 54.8366 -20 46V-2Z" fill="#FFFBE6" shape-rendering="crispEdges"/>
<path d="M-4 -18V-16H340.667V-18V-20H-4V-18ZM356.667 -2H354.667V46H356.667H358.667V-2H356.667ZM340.667 62V60H-4.00001V62V64H340.667V62ZM-20 46H-18V-2H-20H-22V46H-20ZM-4.00001 62V60C-11.732 60 -18 53.732 -18 46H-20H-22C-22 55.9411 -13.9411 64 -4.00001 64V62ZM356.667 46H354.667C354.667 53.732 348.399 60 340.667 60V62V64C350.608 64 358.667 55.9411 358.667 46H356.667ZM340.667 -18V-16C348.399 -16 354.667 -9.73199 354.667 -2H356.667H358.667C358.667 -11.9411 350.608 -20 340.667 -20V-18ZM-4 -18V-20C-13.9411 -20 -22 -11.9411 -22 -2H-20H-18C-18 -9.73199 -11.732 -16 -4 -16V-18Z" fill="#FFCB00" mask="url(#path-2-inside-1_24_68419)"/>
<g id="Container_3">
<g id="MtnMomoBadge" clip-path="url(#clip2_24_68419)">
<path id="Vector" d="M35.2 0H8.8C3.93989 0 0 3.93989 0 8.8V35.2C0 40.0601 3.93989 44 8.8 44H35.2C40.0601 44 44 40.0601 44 35.2V8.8C44 3.93989 40.0601 0 35.2 0Z" fill="#FFCB00"/>
<path id="MTN" d="M5.16328 9.79961H7.45781L9.88125 15.7121H9.98438L12.4078 9.79961H14.7023V18.5996H12.8977V12.8719H12.8246L10.5473 18.5566H9.31836L7.04102 12.8504H6.96797V18.5996H5.16328V9.79961ZM15.9001 11.3336V9.79961H23.1274V11.3336H20.4333V18.5996H18.5942V11.3336H15.9001ZM31.6782 9.79961V18.5996H30.0712L26.2427 13.0609H26.1782V18.5996H24.3177V9.79961H25.9505L29.7489 15.334H29.8263V9.79961H31.6782Z" fill="#003366"/>
<path id="Vector_2" d="M11.0008 27.4996C12.2158 27.4996 13.2008 26.5146 13.2008 25.2996C13.2008 24.0846 12.2158 23.0996 11.0008 23.0996C9.78575 23.0996 8.80078 24.0846 8.80078 25.2996C8.80078 26.5146 9.78575 27.4996 11.0008 27.4996Z" fill="#003366"/>
<path id="Vector_3" d="M19.8016 27.4996C21.0166 27.4996 22.0016 26.5146 22.0016 25.2996C22.0016 24.0846 21.0166 23.0996 19.8016 23.0996C18.5865 23.0996 17.6016 24.0846 17.6016 25.2996C17.6016 26.5146 18.5865 27.4996 19.8016 27.4996Z" fill="#003366"/>
<path id="MoMo" d="M5.09375 30.5H7.17969L9.38281 35.875H9.47656L11.6797 30.5H13.7656V38.5H12.125V33.293H12.0586L9.98828 38.4609H8.87109L6.80078 33.2734H6.73438V38.5H5.09375V30.5ZM17.8389 38.6172C17.2321 38.6172 16.7074 38.4883 16.2646 38.2305C15.8245 37.9701 15.4847 37.6081 15.2451 37.1445C15.0055 36.6784 14.8857 36.138 14.8857 35.5234C14.8857 34.9036 15.0055 34.362 15.2451 33.8984C15.4847 33.4323 15.8245 33.0703 16.2646 32.8125C16.7074 32.5521 17.2321 32.4219 17.8389 32.4219C18.4456 32.4219 18.9691 32.5521 19.4092 32.8125C19.8519 33.0703 20.193 33.4323 20.4326 33.8984C20.6722 34.362 20.792 34.9036 20.792 35.5234C20.792 36.138 20.6722 36.6784 20.4326 37.1445C20.193 37.6081 19.8519 37.9701 19.4092 38.2305C18.9691 38.4883 18.4456 38.6172 17.8389 38.6172ZM17.8467 37.3281C18.1227 37.3281 18.3532 37.25 18.5381 37.0938C18.723 36.9349 18.8623 36.7187 18.9561 36.4453C19.0524 36.1719 19.1006 35.8607 19.1006 35.5117C19.1006 35.1628 19.0524 34.8516 18.9561 34.5781C18.8623 34.3047 18.723 34.0885 18.5381 33.9297C18.3532 33.7708 18.1227 33.6914 17.8467 33.6914C17.568 33.6914 17.3337 33.7708 17.1436 33.9297C16.9561 34.0885 16.8141 34.3047 16.7178 34.5781C16.624 34.8516 16.5771 35.1628 16.5771 35.5117C16.5771 35.8607 16.624 36.1719 16.7178 36.4453C16.8141 36.7187 16.9561 36.9349 17.1436 37.0938C17.3337 37.25 17.568 37.3281 17.8467 37.3281ZM21.9053 30.5H23.9912L26.1943 35.875H26.2881L28.4912 30.5H30.5771V38.5H28.9365V33.293H28.8701L26.7998 38.4609H25.6826L23.6123 33.2734H23.5459V38.5H21.9053V30.5ZM34.6504 38.6172C34.0436 38.6172 33.5189 38.4883 33.0762 38.2305C32.6361 37.9701 32.2962 37.6081 32.0566 37.1445C31.8171 36.6784 31.6973 36.138 31.6973 35.5234C31.6973 34.9036 31.8171 34.362 32.0566 33.8984C32.2962 33.4323 32.6361 33.0703 33.0762 32.8125C33.5189 32.5521 34.0436 32.4219 34.6504 32.4219C35.2572 32.4219 35.7806 32.5521 36.2207 32.8125C36.6634 33.0703 37.0046 33.4323 37.2441 33.8984C37.4837 34.362 37.6035 34.9036 37.6035 35.5234C37.6035 36.138 37.4837 36.6784 37.2441 37.1445C37.0046 37.6081 36.6634 37.9701 36.2207 38.2305C35.7806 38.4883 35.2572 38.6172 34.6504 38.6172ZM34.6582 37.3281C34.9342 37.3281 35.1647 37.25 35.3496 37.0938C35.5345 36.9349 35.6738 36.7187 35.7676 36.4453C35.8639 36.1719 35.9121 35.8607 35.9121 35.5117C35.9121 35.1628 35.8639 34.8516 35.7676 34.5781C35.6738 34.3047 35.5345 34.0885 35.3496 33.9297C35.1647 33.7708 34.9342 33.6914 34.6582 33.6914C34.3796 33.6914 34.1452 33.7708 33.9551 33.9297C33.7676 34.0885 33.6257 34.3047 33.5293 34.5781C33.4355 34.8516 33.3887 35.1628 33.3887 35.5117C33.3887 35.8607 33.4355 36.1719 33.5293 36.4453C33.6257 36.7187 33.7676 36.9349 33.9551 37.0938C34.1452 37.25 34.3796 37.3281 34.6582 37.3281Z" fill="#003366"/>
</g>
</g>
</g>
</g>
</g>
</g>
</g>
</g>
<defs>
<filter id="filter0_d_24_68419" x="-124" y="-291.5" width="600" height="613" filterUnits="userSpaceOnUse" color-interpolation-filters="sRGB">
<feFlood flood-opacity="0" result="BackgroundImageFix"/>
<feColorMatrix in="SourceAlpha" type="matrix" values="0 0 0 0 0 0 0 0 0 0 0 0 0 0 0 0 0 0 127 0" result="hardAlpha"/>
<feOffset dy="40"/>
<feGaussianBlur stdDeviation="40"/>
<feComposite in2="hardAlpha" operator="out"/>
<feColorMatrix type="matrix" values="0 0 0 0 0.0392157 0 0 0 0 0.164706 0 0 0 0 0.321569 0 0 0 0.35 0"/>
<feBlend mode="normal" in2="BackgroundImageFix" result="effect1_dropShadow_24_68419"/>
<feBlend mode="normal" in="SourceGraphic" in2="effect1_dropShadow_24_68419" result="shape"/>
</filter>
<filter id="filter1_d_24_68419" x="-24" y="-22" width="384.668" height="88" filterUnits="userSpaceOnUse" color-interpolation-filters="sRGB">
<feFlood flood-opacity="0" result="BackgroundImageFix"/>
<feColorMatrix in="SourceAlpha" type="matrix" values="0 0 0 0 0 0 0 0 0 0 0 0 0 0 0 0 0 0 127 0" result="hardAlpha"/>
<feMorphology radius="4" operator="dilate" in="SourceAlpha" result="effect1_dropShadow_24_68419"/>
<feOffset/>
<feComposite in2="hardAlpha" operator="out"/>
<feColorMatrix type="matrix" values="0 0 0 0 1 0 0 0 0 0.796078 0 0 0 0 0 0 0 0 0.133 0"/>
<feBlend mode="normal" in2="BackgroundImageFix" result="effect1_dropShadow_24_68419"/>
<feBlend mode="normal" in="SourceGraphic" in2="effect1_dropShadow_24_68419" result="shape"/>
</filter>
<clipPath id="clip0_24_68419">
<path d="M-44 -227.5C-44 -240.755 -33.2548 -251.5 -20 -251.5H372C385.255 -251.5 396 -240.755 396 -227.5V177.5C396 190.755 385.255 201.5 372 201.5H-20C-33.2548 201.5 -44 190.755 -44 177.5V-227.5Z" fill="white"/>
</clipPath>
<clipPath id="clip1_24_68419">
<rect width="440" height="373.833" fill="white" transform="translate(-44 -172.333)"/>
</clipPath>
<clipPath id="clip2_24_68419">
<rect width="44" height="44" fill="white"/>
</clipPath>
</defs>
</svg>
