<svg width="88" height="34" viewBox="0 0 88 34" fill="none" xmlns="http://www.w3.org/2000/svg">
<rect width="88" height="34" fill="#F5F5F5"/>
<g id="ModalShell">
<rect width="896" height="503.333" transform="translate(-271.332 -145.667)" fill="#0A2A52" fill-opacity="0.65"/>
<g id="Container" filter="url(#filter0_d_24_68419)">
<g clip-path="url(#clip0_24_68419)">
<path d="M-43.332 -96.5C-43.332 -109.755 -32.5869 -120.5 -19.332 -120.5H372.668C385.923 -120.5 396.668 -109.755 396.668 -96.5V308.5C396.668 321.755 385.923 332.5 372.668 332.5H-19.332C-32.5869 332.5 -43.332 321.755 -43.332 308.5V-96.5Z" fill="white"/>
<g id="Container_2">
<g id="PaymentModal">
<mask id="path-2-inside-1_24_68419" fill="white">
<path d="M-19.332 -3.33301C-19.332 -11.065 -13.064 -17.333 -5.33203 -17.333H358.668C366.4 -17.333 372.668 -11.065 372.668 -3.33301V37.3336C372.668 45.0656 366.4 51.3336 358.668 51.3336H-5.33204C-13.064 51.3336 -19.332 45.0656 -19.332 37.3336V-3.33301Z"/>
</mask>
<path d="M-19.332 -3.33301C-19.332 -11.065 -13.064 -17.333 -5.33203 -17.333H358.668C366.4 -17.333 372.668 -11.065 372.668 -3.33301V37.3336C372.668 45.0656 366.4 51.3336 358.668 51.3336H-5.33204C-13.064 51.3336 -19.332 45.0656 -19.332 37.3336V-3.33301Z" fill="#FFFBE6"/>
<path d="M-5.33203 -17.333V-15.9997H358.668V-17.333V-18.6663H-5.33203V-17.333ZM372.668 -3.33301H371.335V37.3336H372.668H374.001V-3.33301H372.668ZM358.668 51.3336V50.0003H-5.33204V51.3336V52.667H358.668V51.3336ZM-19.332 37.3336H-17.9987V-3.33301H-19.332H-20.6654V37.3336H-19.332ZM-5.33204 51.3336V50.0003C-12.3276 50.0003 -17.9987 44.3293 -17.9987 37.3336H-19.332H-20.6654C-20.6654 45.802 -13.8004 52.667 -5.33204 52.667V51.3336ZM372.668 37.3336H371.335C371.335 44.3293 365.664 50.0003 358.668 50.0003V51.3336V52.667C367.136 52.667 374.001 45.802 374.001 37.3336H372.668ZM358.668 -17.333V-15.9997C365.664 -15.9997 371.335 -10.3286 371.335 -3.33301H372.668H374.001C374.001 -11.8014 367.136 -18.6663 358.668 -18.6663V-17.333ZM-5.33203 -17.333V-18.6663C-13.8004 -18.6663 -20.6654 -11.8014 -20.6654 -3.33301H-19.332H-17.9987C-17.9987 -10.3286 -12.3276 -15.9997 -5.33203 -15.9997V-17.333Z" fill="#FFCB00" mask="url(#path-2-inside-1_24_68419)"/>
<g id="MtnMomoLogo" clip-path="url(#clip1_24_68419)">
<path id="Vector" d="M81.2308 0.0771484H6.76923C3.03069 0.0771484 0 3.10784 0 6.84638V27.1541C0 30.8926 3.03069 33.9233 6.76923 33.9233H81.2308C84.9693 33.9233 88 30.8926 88 27.1541V6.84638C88 3.10784 84.9693 0.0771484 81.2308 0.0771484Z" fill="#FFCB00"/>
<path id="MTN" d="M7.09856 7.92345H10.6286L14.357 17.0196H14.5156L18.244 7.92345H21.774V21.4619H18.9976V12.65H18.8852L15.3816 21.3958H13.491L9.98738 12.617H9.875V21.4619H7.09856V7.92345ZM23.6167 10.2834V7.92345H34.7357V10.2834H30.5909V21.4619H27.7616V10.2834H23.6167ZM47.8908 7.92345V21.4619H45.4184L39.5284 12.9409H39.4292V21.4619H36.5669V7.92345H39.0789L44.9226 16.4379H45.0416V7.92345H47.8908Z" fill="#003366"/>
<path id="Vector_2" opacity="0.25" d="M49.4997 9.1727C49.4997 8.82221 49.2156 8.53809 48.8651 8.53809C48.5146 8.53809 48.2305 8.82221 48.2305 9.1727V24.8265C48.2305 25.177 48.5146 25.4612 48.8651 25.4612C49.2156 25.4612 49.4997 25.177 49.4997 24.8265V9.1727Z" fill="#003366"/>
<path id="Vector_3" d="M57.5373 11.5003C58.7056 11.5003 59.6526 10.5532 59.6526 9.38492C59.6526 8.21662 58.7056 7.26953 57.5373 7.26953C56.369 7.26953 55.4219 8.21662 55.4219 9.38492C55.4219 10.5532 56.369 11.5003 57.5373 11.5003Z" fill="#003366"/>
<path id="Vector_4" d="M67.6935 11.5003C68.8618 11.5003 69.8089 10.5532 69.8089 9.38492C69.8089 8.21662 68.8618 7.26953 67.6935 7.26953C66.5252 7.26953 65.5781 8.21662 65.5781 9.38492C65.5781 10.5532 66.5252 11.5003 67.6935 11.5003Z" fill="#003366"/>
<path id="MoMo" d="M53.2097 15.1541H55.4561L57.8287 20.9426H57.9297L60.3023 15.1541H62.5487V23.7695H60.7819V18.162H60.7103L58.4808 23.7275H57.2776L55.0481 18.1409H54.9766V23.7695H53.2097V15.1541ZM66.9352 23.8957C66.2818 23.8957 65.7167 23.7569 65.2399 23.4793C64.766 23.1988 64.4 22.809 64.142 22.3098C63.884 21.8078 63.755 21.2259 63.755 20.564C63.755 19.8965 63.884 19.3132 64.142 18.814C64.4 18.312 64.766 17.9222 65.2399 17.6445C65.7167 17.3641 66.2818 17.2239 66.9352 17.2239C67.5887 17.2239 68.1524 17.3641 68.6264 17.6445C69.1031 17.9222 69.4705 18.312 69.7285 18.814C69.9865 19.3132 70.1155 19.8965 70.1155 20.564C70.1155 21.2259 69.9865 21.8078 69.7285 22.3098C69.4705 22.809 69.1031 23.1988 68.6264 23.4793C68.1524 23.7569 67.5887 23.8957 66.9352 23.8957ZM66.9437 22.5075C67.2409 22.5075 67.4891 22.4234 67.6883 22.2551C67.8874 22.084 68.0374 21.8513 68.1384 21.5568C68.2421 21.2623 68.294 20.9272 68.294 20.5514C68.294 20.1756 68.2421 19.8404 68.1384 19.546C68.0374 19.2515 67.8874 19.0187 67.6883 18.8477C67.4891 18.6766 67.2409 18.591 66.9437 18.591C66.6436 18.591 66.3912 18.6766 66.1864 18.8477C65.9845 19.0187 65.8317 19.2515 65.7279 19.546C65.627 19.8404 65.5765 20.1756 65.5765 20.5514C65.5765 20.9272 65.627 21.2623 65.7279 21.5568C65.8317 21.8513 65.9845 22.084 66.1864 22.2551C66.3912 22.4234 66.6436 22.5075 66.9437 22.5075ZM71.3145 15.1541H73.5608L75.9334 20.9426H76.0344L78.407 15.1541H80.6534V23.7695H78.8866V18.162H78.8151L76.5855 23.7275H75.3824L73.1528 18.1409H73.0813V23.7695H71.3145V15.1541ZM85.04 23.8957C84.3865 23.8957 83.8214 23.7569 83.3447 23.4793C82.8707 23.1988 82.5047 22.809 82.2467 22.3098C81.9887 21.8078 81.8597 21.2259 81.8597 20.564C81.8597 19.8965 81.9887 19.3132 82.2467 18.814C82.5047 18.312 82.8707 17.9222 83.3447 17.6445C83.8214 17.3641 84.3865 17.2239 85.04 17.2239C85.6934 17.2239 86.2571 17.3641 86.7311 17.6445C87.2078 17.9222 87.5752 18.312 87.8332 18.814C88.0912 19.3132 88.2203 19.8965 88.2203 20.564C88.2203 21.2259 88.0912 21.8078 87.8332 22.3098C87.5752 22.809 87.2078 23.1988 86.7311 23.4793C86.2571 23.7569 85.6934 23.8957 85.04 23.8957ZM85.0484 22.5075C85.3457 22.5075 85.5939 22.4234 85.793 22.2551C85.9921 22.084 86.1421 21.8513 86.2431 21.5568C86.3469 21.2623 86.3987 20.9272 86.3987 20.5514C86.3987 20.1756 86.3469 19.8404 86.2431 19.546C86.1421 19.2515 85.9921 19.0187 85.793 18.8477C85.5939 18.6766 85.3457 18.591 85.0484 18.591C84.7483 18.591 84.4959 18.6766 84.2912 18.8477C84.0892 19.0187 83.9364 19.2515 83.8326 19.546C83.7317 19.8404 83.6812 20.1756 83.6812 20.5514C83.6812 20.9272 83.7317 21.2623 83.8326 21.5568C83.9364 21.8513 84.0892 22.084 84.2912 22.2551C84.4959 22.4234 84.7483 22.5075 85.0484 22.5075Z" fill="#003366"/>
</g>
</g>
</g>
</g>
</g>
</g>
<defs>
<filter id="filter0_d_24_68419" x="-123.332" y="-160.5" width="600" height="613" filterUnits="userSpaceOnUse" color-interpolation-filters="sRGB">
<feFlood flood-opacity="0" result="BackgroundImageFix"/>
<feColorMatrix in="SourceAlpha" type="matrix" values="0 0 0 0 0 0 0 0 0 0 0 0 0 0 0 0 0 0 127 0" result="hardAlpha"/>
<feOffset dy="40"/>
<feGaussianBlur stdDeviation="40"/>
<feComposite in2="hardAlpha" operator="out"/>
<feColorMatrix type="matrix" values="0 0 0 0 0.0392157 0 0 0 0 0.164706 0 0 0 0 0.321569 0 0 0 0.35 0"/>
<feBlend mode="normal" in2="BackgroundImageFix" result="effect1_dropShadow_24_68419"/>
<feBlend mode="normal" in="SourceGraphic" in2="effect1_dropShadow_24_68419" result="shape"/>
</filter>
<clipPath id="clip0_24_68419">
<path d="M-43.332 -96.5C-43.332 -109.755 -32.5869 -120.5 -19.332 -120.5H372.668C385.923 -120.5 396.668 -109.755 396.668 -96.5V308.5C396.668 321.755 385.923 332.5 372.668 332.5H-19.332C-32.5869 332.5 -43.332 321.755 -43.332 308.5V-96.5Z" fill="white"/>
</clipPath>
<clipPath id="clip1_24_68419">
<rect width="88" height="34" fill="white"/>
</clipPath>
</defs>
</svg>
