<svg width="99" height="34" viewBox="0 0 99 34" fill="none" xmlns="http://www.w3.org/2000/svg">
<rect width="99" height="34" fill="#F5F5F5"/>
<g id="ModalShell">
<rect width="896" height="503.333" transform="translate(-271.332 -145.667)" fill="#0A2A52" fill-opacity="0.65"/>
<g id="Container" filter="url(#filter0_d_24_68419)">
<g clip-path="url(#clip0_24_68419)">
<path d="M-43.332 -96.5C-43.332 -109.755 -32.5869 -120.5 -19.332 -120.5H372.668C385.923 -120.5 396.668 -109.755 396.668 -96.5V308.5C396.668 321.755 385.923 332.5 372.668 332.5H-19.332C-32.5869 332.5 -43.332 321.755 -43.332 308.5V-96.5Z" fill="white"/>
<g id="Container_2">
<g id="PaymentModal">
<mask id="path-2-inside-1_24_68419" fill="white">
<path d="M-19.332 -3.33301C-19.332 -11.065 -13.064 -17.333 -5.33203 -17.333H358.668C366.4 -17.333 372.668 -11.065 372.668 -3.33301V37.3336C372.668 45.0656 366.4 51.3336 358.668 51.3336H-5.33204C-13.064 51.3336 -19.332 45.0656 -19.332 37.3336V-3.33301Z"/>
</mask>
<path d="M-19.332 -3.33301C-19.332 -11.065 -13.064 -17.333 -5.33203 -17.333H358.668C366.4 -17.333 372.668 -11.065 372.668 -3.33301V37.3336C372.668 45.0656 366.4 51.3336 358.668 51.3336H-5.33204C-13.064 51.3336 -19.332 45.0656 -19.332 37.3336V-3.33301Z" fill="#FFF5F0"/>
<path d="M-5.33203 -17.333V-15.9997H358.668V-17.333V-18.6663H-5.33203V-17.333ZM372.668 -3.33301H371.335V37.3336H372.668H374.001V-3.33301H372.668ZM358.668 51.3336V50.0003H-5.33204V51.3336V52.667H358.668V51.3336ZM-19.332 37.3336H-17.9987V-3.33301H-19.332H-20.6654V37.3336H-19.332ZM-5.33204 51.3336V50.0003C-12.3276 50.0003 -17.9987 44.3293 -17.9987 37.3336H-19.332H-20.6654C-20.6654 45.802 -13.8004 52.667 -5.33204 52.667V51.3336ZM372.668 37.3336H371.335C371.335 44.3293 365.664 50.0003 358.668 50.0003V51.3336V52.667C367.136 52.667 374.001 45.802 374.001 37.3336H372.668ZM358.668 -17.333V-15.9997C365.664 -15.9997 371.335 -10.3286 371.335 -3.33301H372.668H374.001C374.001 -11.8014 367.136 -18.6663 358.668 -18.6663V-17.333ZM-5.33203 -17.333V-18.6663C-13.8004 -18.6663 -20.6654 -11.8014 -20.6654 -3.33301H-19.332H-17.9987C-17.9987 -10.3286 -12.3276 -15.9997 -5.33203 -15.9997V-17.333Z" fill="#FF6600" mask="url(#path-2-inside-1_24_68419)"/>
<g id="OrangeMoneyLogo" clip-path="url(#clip1_24_68419)">
<path id="Vector" d="M91.9992 0H6.99922C3.24368 0 0.199219 3.04446 0.199219 6.8V27.2C0.199219 30.9555 3.24368 34 6.99922 34H91.9992C95.7548 34 98.7992 30.9555 98.7992 27.2V6.8C98.7992 3.04446 95.7548 0 91.9992 0Z" fill="#FF6600"/>
<path id="Vector_2" opacity="0.18" d="M20.5984 6.7998H12.0984C8.81234 6.7998 6.14844 9.46371 6.14844 12.7498V21.2498C6.14844 24.5359 8.81234 27.1998 12.0984 27.1998H20.5984C23.8845 27.1998 26.5484 24.5359 26.5484 21.2498V12.7498C26.5484 9.46371 23.8845 6.7998 20.5984 6.7998Z" fill="white"/>
<path id="Vector_3" d="M19.7492 9.34961H12.9492C10.602 9.34961 8.69922 11.2524 8.69922 13.5996V20.3996C8.69922 22.7468 10.602 24.6496 12.9492 24.6496H19.7492C22.0964 24.6496 23.9992 22.7468 23.9992 20.3996V13.5996C23.9992 11.2524 22.0964 9.34961 19.7492 9.34961Z" stroke="white" stroke-width="2.125"/>
<path id="Vector_4" d="M16.3492 20.3996C18.227 20.3996 19.7492 18.8774 19.7492 16.9996C19.7492 15.1218 18.227 13.5996 16.3492 13.5996C14.4715 13.5996 12.9492 15.1218 12.9492 16.9996C12.9492 18.8774 14.4715 20.3996 16.3492 20.3996Z" fill="white"/>
<path id="orange" d="M35.8903 18.7681C35.2808 18.7681 34.7537 18.6386 34.309 18.3796C33.8669 18.118 33.5255 17.7544 33.2848 17.2888C33.0441 16.8205 32.9238 16.2777 32.9238 15.6603C32.9238 15.0377 33.0441 14.4936 33.2848 14.0279C33.5255 13.5596 33.8669 13.196 34.309 12.937C34.7537 12.6754 35.2808 12.5446 35.8903 12.5446C36.4999 12.5446 37.0257 12.6754 37.4678 12.937C37.9125 13.196 38.2552 13.5596 38.4959 14.0279C38.7366 14.4936 38.8569 15.0377 38.8569 15.6603C38.8569 16.2777 38.7366 16.8205 38.4959 17.2888C38.2552 17.7544 37.9125 18.118 37.4678 18.3796C37.0257 18.6386 36.4999 18.7681 35.8903 18.7681ZM35.8982 17.4732C36.1755 17.4732 36.407 17.3947 36.5927 17.2377C36.7785 17.0782 36.9184 16.861 37.0126 16.5864C37.1094 16.3117 37.1578 15.9991 37.1578 15.6485C37.1578 15.298 37.1094 14.9854 37.0126 14.7107C36.9184 14.436 36.7785 14.2189 36.5927 14.0593C36.407 13.8997 36.1755 13.8199 35.8982 13.8199C35.6183 13.8199 35.3828 13.8997 35.1919 14.0593C35.0035 14.2189 34.8609 14.436 34.7642 14.7107C34.67 14.9854 34.6229 15.298 34.6229 15.6485C34.6229 15.9991 34.67 16.3117 34.7642 16.5864C34.8609 16.861 35.0035 17.0782 35.1919 17.2377C35.3828 17.3947 35.6183 17.4732 35.8982 17.4732ZM39.9438 18.6504V12.6231H41.5645V13.6748H41.6272C41.7371 13.3007 41.9215 13.0181 42.1805 12.8272C42.4395 12.6336 42.7377 12.5368 43.0752 12.5368C43.1589 12.5368 43.2492 12.542 43.346 12.5525C43.4427 12.5629 43.5278 12.5773 43.601 12.5956V14.0789C43.5225 14.0554 43.414 14.0345 43.2753 14.0161C43.1367 13.9978 43.0098 13.9887 42.8947 13.9887C42.6488 13.9887 42.429 14.0423 42.2355 14.1496C42.0445 14.2542 41.8928 14.4007 41.7803 14.589C41.6704 14.7774 41.6155 14.9945 41.6155 15.2404V18.6504H39.9438ZM46.0113 18.7642C45.6268 18.7642 45.2841 18.6975 44.9832 18.5641C44.6824 18.428 44.4443 18.2279 44.2691 17.9637C44.0964 17.6969 44.0101 17.3646 44.0101 16.967C44.0101 16.6321 44.0716 16.3509 44.1945 16.1233C44.3175 15.8957 44.4849 15.7126 44.6968 15.574C44.9087 15.4353 45.1494 15.3307 45.4188 15.26C45.6909 15.1894 45.976 15.1397 46.2742 15.1109C46.6248 15.0743 46.9073 15.0403 47.1218 15.0089C47.3363 14.9749 47.492 14.9252 47.5888 14.8598C47.6856 14.7944 47.734 14.6976 47.734 14.5694V14.5459C47.734 14.2974 47.6555 14.1051 47.4985 13.9691C47.3442 13.833 47.1244 13.765 46.8393 13.765C46.5385 13.765 46.2991 13.8317 46.1212 13.9651C45.9433 14.0959 45.8256 14.2607 45.768 14.4596L44.222 14.334C44.3005 13.9677 44.4548 13.6512 44.685 13.3844C44.9152 13.1149 45.2121 12.9083 45.5758 12.7644C45.942 12.6179 46.3658 12.5446 46.8471 12.5446C47.182 12.5446 47.5025 12.5839 47.8085 12.6624C48.1172 12.7408 48.3906 12.8625 48.6286 13.0273C48.8693 13.1921 49.059 13.404 49.1976 13.663C49.3363 13.9193 49.4056 14.2267 49.4056 14.5851V18.6504H47.8203V17.8146H47.7732C47.6764 18.0029 47.5469 18.169 47.3847 18.3129C47.2225 18.4542 47.0276 18.5654 46.8001 18.6465C46.5725 18.7249 46.3096 18.7642 46.0113 18.7642ZM46.4901 17.6105C46.736 17.6105 46.9531 17.5621 47.1414 17.4653C47.3298 17.3659 47.4776 17.2325 47.5849 17.0651C47.6921 16.8977 47.7457 16.708 47.7457 16.4961V15.8565C47.6934 15.8905 47.6215 15.9219 47.5299 15.9507C47.441 15.9768 47.3403 16.0017 47.2278 16.0252C47.1153 16.0462 47.0028 16.0658 46.8903 16.0841C46.7778 16.0998 46.6758 16.1142 46.5842 16.1273C46.388 16.156 46.2167 16.2018 46.0702 16.2646C45.9237 16.3274 45.8099 16.4124 45.7288 16.5197C45.6477 16.6243 45.6072 16.7551 45.6072 16.9121C45.6072 17.1396 45.6896 17.3136 45.8544 17.4339C46.0218 17.5517 46.2337 17.6105 46.4901 17.6105ZM52.3741 15.1659V18.6504H50.7025V12.6231H52.2956V13.6865H52.3663C52.4997 13.336 52.7233 13.0587 53.0373 12.8546C53.3512 12.648 53.7318 12.5446 54.1792 12.5446C54.5977 12.5446 54.9626 12.6362 55.2739 12.8193C55.5853 13.0024 55.8272 13.264 55.9999 13.6041C56.1725 13.9416 56.2589 14.3444 56.2589 14.8127V18.6504H54.5872V15.1109C54.5899 14.7421 54.4957 14.4543 54.3047 14.2477C54.1138 14.0384 53.8508 13.9337 53.516 13.9337C53.291 13.9337 53.0922 13.9821 52.9195 14.0789C52.7495 14.1757 52.6161 14.317 52.5193 14.5027C52.4251 14.6858 52.3767 14.9069 52.3741 15.1659ZM60.2918 21.0362C59.7503 21.0362 59.2859 20.9616 58.8987 20.8125C58.5142 20.666 58.2081 20.4659 57.9805 20.2121C57.7529 19.9584 57.6051 19.6732 57.5371 19.3567L59.0832 19.1487C59.1303 19.2691 59.2048 19.3816 59.3068 19.4862C59.4089 19.5908 59.5436 19.6746 59.711 19.7373C59.8811 19.8027 60.0877 19.8354 60.331 19.8354C60.6946 19.8354 60.9942 19.7465 61.2296 19.5686C61.4677 19.3933 61.5867 19.099 61.5867 18.6857V17.5831H61.5161C61.4428 17.7505 61.3329 17.9088 61.1864 18.0579C61.0399 18.207 60.8516 18.3286 60.6214 18.4228C60.3912 18.517 60.1165 18.5641 59.7973 18.5641C59.3448 18.5641 58.9328 18.4594 58.5613 18.2501C58.1924 18.0382 57.8981 17.7152 57.6784 17.2809C57.4613 16.844 57.3527 16.2921 57.3527 15.625C57.3527 14.9422 57.4639 14.3719 57.6862 13.9141C57.9086 13.4563 58.2042 13.1136 58.5731 12.886C58.9445 12.6584 59.3513 12.5446 59.7934 12.5446C60.1309 12.5446 60.4134 12.6022 60.641 12.7173C60.8686 12.8298 61.0517 12.971 61.1904 13.1411C61.3316 13.3085 61.4402 13.4733 61.5161 13.6355H61.5788V12.6231H63.2387V18.7093C63.2387 19.222 63.1131 19.651 62.862 19.9963C62.6109 20.3416 62.2629 20.6006 61.8182 20.7733C61.3761 20.9486 60.8673 21.0362 60.2918 21.0362ZM60.3271 17.3084C60.5965 17.3084 60.8241 17.2417 61.0099 17.1083C61.1982 16.9722 61.3421 16.7786 61.4415 16.5275C61.5435 16.2738 61.5945 15.9703 61.5945 15.6171C61.5945 15.264 61.5448 14.9579 61.4454 14.6989C61.346 14.4373 61.2021 14.2346 61.0138 14.0907C60.8254 13.9468 60.5965 13.8749 60.3271 13.8749C60.0524 13.8749 59.8209 13.9494 59.6325 14.0985C59.4442 14.245 59.3016 14.4491 59.2048 14.7107C59.108 14.9723 59.0596 15.2744 59.0596 15.6171C59.0596 15.9651 59.108 16.2659 59.2048 16.5197C59.3042 16.7708 59.4468 16.9657 59.6325 17.1043C59.8209 17.2404 60.0524 17.3084 60.3271 17.3084ZM67.3157 18.7681C66.6957 18.7681 66.1621 18.6425 65.7147 18.3914C65.27 18.1377 64.9273 17.7793 64.6867 17.3162C64.446 16.8506 64.3256 16.2999 64.3256 15.6642C64.3256 15.0442 64.446 14.5001 64.6867 14.0318C64.9273 13.5636 65.2661 13.1986 65.703 12.937C66.1425 12.6754 66.6578 12.5446 67.249 12.5446C67.6467 12.5446 68.0168 12.6087 68.3595 12.7369C68.7048 12.8625 69.0057 13.0521 69.262 13.3059C69.521 13.5596 69.7225 13.8788 69.8663 14.2634C70.0102 14.6453 70.0822 15.0926 70.0822 15.6054V16.0645H64.9927V15.0285H68.5086C68.5086 14.7879 68.4563 14.5747 68.3517 14.3889C68.247 14.2032 68.1018 14.058 67.9161 13.9534C67.733 13.8461 67.5198 13.7925 67.2765 13.7925C67.0227 13.7925 66.7978 13.8513 66.6016 13.9691C66.408 14.0842 66.2563 14.2398 66.1464 14.436C66.0365 14.6296 65.9803 14.8454 65.9777 15.0835V16.0684C65.9777 16.3666 66.0326 16.6243 66.1425 16.8414C66.255 17.0586 66.4132 17.226 66.6173 17.3437C66.8213 17.4614 67.0633 17.5203 67.3432 17.5203C67.5289 17.5203 67.699 17.4941 67.8533 17.4418C68.0077 17.3895 68.1398 17.311 68.2497 17.2064C68.3595 17.1017 68.4432 16.9735 68.5008 16.8218L70.0468 16.9238C69.9684 17.2953 69.8075 17.6197 69.5642 17.897C69.3235 18.1717 69.0122 18.3862 68.6303 18.5405C68.251 18.6922 67.8128 18.7681 67.3157 18.7681Z" fill="white"/>
<path id="Money" d="M33.091 22.6004H34.8641L36.7367 27.1691H36.8164L38.6891 22.6004H40.4621V29.4004H39.0676V24.9744H39.0111L37.2514 29.3672H36.3018L34.542 24.9578H34.4855V29.4004H33.091V22.6004ZM43.9244 29.5C43.4086 29.5 42.9626 29.3904 42.5863 29.1713C42.2122 28.9499 41.9233 28.6423 41.7197 28.2482C41.516 27.852 41.4142 27.3927 41.4142 26.8703C41.4142 26.3435 41.516 25.8831 41.7197 25.4891C41.9233 25.0928 42.2122 24.7852 42.5863 24.566C42.9626 24.3447 43.4086 24.234 43.9244 24.234C44.4401 24.234 44.885 24.3447 45.2591 24.566C45.6354 24.7852 45.9254 25.0928 46.1291 25.4891C46.3327 25.8831 46.4345 26.3435 46.4345 26.8703C46.4345 27.3927 46.3327 27.852 46.1291 28.2482C45.9254 28.6423 45.6354 28.9499 45.2591 29.1713C44.885 29.3904 44.4401 29.5 43.9244 29.5ZM43.931 28.4043C44.1656 28.4043 44.3615 28.3379 44.5187 28.2051C44.6759 28.0701 44.7943 27.8863 44.874 27.6539C44.9559 27.4215 44.9968 27.157 44.9968 26.8604C44.9968 26.5637 44.9559 26.2992 44.874 26.0668C44.7943 25.8344 44.6759 25.6507 44.5187 25.5156C44.3615 25.3806 44.1656 25.3131 43.931 25.3131C43.6942 25.3131 43.4949 25.3806 43.3334 25.5156C43.174 25.6507 43.0533 25.8344 42.9714 26.0668C42.8917 26.2992 42.8519 26.5637 42.8519 26.8604C42.8519 27.157 42.8917 27.4215 42.9714 27.6539C43.0533 27.8863 43.174 28.0701 43.3334 28.2051C43.4949 28.3379 43.6942 28.4043 43.931 28.4043ZM48.7687 26.452V29.4004H47.3542V24.3004H48.7023V25.2002H48.7621C48.875 24.9036 49.0642 24.6689 49.3298 24.4963C49.5955 24.3214 49.9175 24.234 50.296 24.234C50.6502 24.234 50.959 24.3115 51.2224 24.4664C51.4858 24.6214 51.6906 24.8427 51.8367 25.1305C51.9828 25.416 52.0558 25.7569 52.0558 26.1531V29.4004H50.6414V26.4055C50.6436 26.0934 50.5639 25.8499 50.4023 25.675C50.2407 25.4979 50.0182 25.4094 49.7349 25.4094C49.5445 25.4094 49.3763 25.4503 49.2302 25.5322C49.0863 25.6141 48.9735 25.7337 48.8916 25.8908C48.8119 26.0458 48.7709 26.2328 48.7687 26.452ZM55.4948 29.5C54.9702 29.5 54.5187 29.3938 54.1401 29.1812C53.7638 28.9665 53.4739 28.6633 53.2702 28.2715C53.0666 27.8775 52.9647 27.4115 52.9647 26.8736C52.9647 26.349 53.0666 25.8886 53.2702 25.4924C53.4739 25.0962 53.7605 24.7874 54.1302 24.566C54.5021 24.3447 54.9381 24.234 55.4384 24.234C55.7748 24.234 56.0881 24.2882 56.378 24.3967C56.6702 24.5029 56.9248 24.6634 57.1417 24.8781C57.3608 25.0928 57.5313 25.3629 57.653 25.6883C57.7748 26.0115 57.8356 26.39 57.8356 26.8238V27.2123H53.5292V26.3357H56.5042C56.5042 26.1321 56.4599 25.9517 56.3714 25.7945C56.2828 25.6374 56.16 25.5145 56.0028 25.426C55.8479 25.3352 55.6675 25.2898 55.4616 25.2898C55.2469 25.2898 55.0565 25.3396 54.8905 25.4393C54.7267 25.5367 54.5983 25.6684 54.5054 25.8344C54.4124 25.9982 54.3648 26.1808 54.3626 26.3822V27.2156C54.3626 27.468 54.4091 27.686 54.5021 27.8697C54.5972 28.0535 54.7312 28.1951 54.9038 28.2947C55.0765 28.3943 55.2812 28.4441 55.5181 28.4441C55.6752 28.4441 55.8191 28.422 55.9497 28.3777C56.0803 28.3335 56.1921 28.2671 56.2851 28.1785C56.378 28.09 56.4489 27.9815 56.4976 27.8531L57.8058 27.9395C57.7394 28.2538 57.6032 28.5283 57.3974 28.7629C57.1937 28.9953 56.9303 29.1768 56.6071 29.3074C56.2862 29.4358 55.9154 29.5 55.4948 29.5ZM59.495 31.3129C59.3157 31.3129 59.1474 31.2985 58.9903 31.2697C58.8353 31.2432 58.707 31.2089 58.6051 31.1668L58.9239 30.1109C59.0899 30.1618 59.2393 30.1895 59.3721 30.1939C59.5071 30.1984 59.6234 30.1674 59.7208 30.101C59.8204 30.0346 59.9012 29.9217 59.9631 29.7623L60.0461 29.5465L58.2167 24.3004H59.7042L60.76 28.0457H60.8131L61.879 24.3004H63.3764L61.3942 29.9516C61.299 30.226 61.1695 30.4651 61.0057 30.6688C60.8441 30.8746 60.6394 31.0329 60.3915 31.1436C60.1435 31.2564 59.8447 31.3129 59.495 31.3129Z" fill="white"/>
</g>
</g>
</g>
</g>
</g>
</g>
<defs>
<filter id="filter0_d_24_68419" x="-123.332" y="-160.5" width="600" height="613" filterUnits="userSpaceOnUse" color-interpolation-filters="sRGB">
<feFlood flood-opacity="0" result="BackgroundImageFix"/>
<feColorMatrix in="SourceAlpha" type="matrix" values="0 0 0 0 0 0 0 0 0 0 0 0 0 0 0 0 0 0 127 0" result="hardAlpha"/>
<feOffset dy="40"/>
<feGaussianBlur stdDeviation="40"/>
<feComposite in2="hardAlpha" operator="out"/>
<feColorMatrix type="matrix" values="0 0 0 0 0.0392157 0 0 0 0 0.164706 0 0 0 0 0.321569 0 0 0 0.35 0"/>
<feBlend mode="normal" in2="BackgroundImageFix" result="effect1_dropShadow_24_68419"/>
<feBlend mode="normal" in="SourceGraphic" in2="effect1_dropShadow_24_68419" result="shape"/>
</filter>
<clipPath id="clip0_24_68419">
<path d="M-43.332 -96.5C-43.332 -109.755 -32.5869 -120.5 -19.332 -120.5H372.668C385.923 -120.5 396.668 -109.755 396.668 -96.5V308.5C396.668 321.755 385.923 332.5 372.668 332.5H-19.332C-32.5869 332.5 -43.332 321.755 -43.332 308.5V-96.5Z" fill="white"/>
</clipPath>
<clipPath id="clip1_24_68419">
<rect width="99" height="34" fill="white"/>
</clipPath>
</defs>
</svg>
