<svg width="44" height="44" viewBox="0 0 44 44" fill="none" xmlns="http://www.w3.org/2000/svg">
<rect width="44" height="44" fill="#F5F5F5"/>
<g id="ModalShell">
<rect width="896" height="503.333" transform="translate(-279.668 -368.667)" fill="#0A2A52" fill-opacity="0.65"/>
<g id="Container" filter="url(#filter0_d_24_68419)">
<g clip-path="url(#clip0_24_68419)">
<path d="M-51.668 -319.5C-51.668 -332.755 -40.9228 -343.5 -27.668 -343.5H364.332C377.587 -343.5 388.332 -332.755 388.332 -319.5V85.5C388.332 98.7548 377.587 109.5 364.332 109.5H-27.668C-40.9228 109.5 -51.668 98.7548 -51.668 85.5V-319.5Z" fill="white"/>
<g id="Container_2" clip-path="url(#clip1_24_68419)">
<g id="PaymentModal">
<g id="MomoMethodButton (margin)">
<g id="MomoMethodButton">
<path d="M-20 -2C-20 -10.8366 -12.8366 -18 -4 -18H340.667C349.503 -18 356.667 -10.8366 356.667 -2V46C356.667 54.8366 349.503 62 340.667 62H-4.00001C-12.8366 62 -20 54.8366 -20 46V-2Z" fill="#F8F9FA"/>
<g id="Container_3">
<g id="OrangeMoneyBadge" clip-path="url(#clip2_24_68419)">
<path id="Vector" d="M35.2 0H8.8C3.93989 0 0 3.93989 0 8.8V35.2C0 40.0601 3.93989 44 8.8 44H35.2C40.0601 44 44 40.0601 44 35.2V8.8C44 3.93989 40.0601 0 35.2 0Z" fill="#FF6600"/>
<path id="Vector_2" opacity="0.18" d="M19.7984 4.40039H10.9984C7.35336 4.40039 4.39844 7.35531 4.39844 11.0004V19.8004C4.39844 23.4455 7.35336 26.4004 10.9984 26.4004H19.7984C23.4435 26.4004 26.3984 23.4455 26.3984 19.8004V11.0004C26.3984 7.35531 23.4435 4.40039 19.7984 4.40039Z" fill="white"/>
<path id="Vector_3" d="M18.6992 7.7002H12.0992C9.66917 7.7002 7.69922 9.67014 7.69922 12.1002V18.7002C7.69922 21.1302 9.66917 23.1002 12.0992 23.1002H18.6992C21.1293 23.1002 23.0992 21.1302 23.0992 18.7002V12.1002C23.0992 9.67014 21.1293 7.7002 18.6992 7.7002Z" stroke="white" stroke-width="2.2"/>
<path id="Vector_4" d="M15.4016 18.6996C17.2241 18.6996 18.7016 17.2221 18.7016 15.3996C18.7016 13.5771 17.2241 12.0996 15.4016 12.0996C13.579 12.0996 12.1016 13.5771 12.1016 15.3996C12.1016 17.2221 13.579 18.6996 15.4016 18.6996Z" fill="white"/>
<path id="orange" d="M7.26719 34.9492C6.75143 34.9492 6.3054 34.8396 5.9291 34.6205C5.55501 34.3992 5.26615 34.0915 5.0625 33.6975C4.85885 33.3012 4.75703 32.8419 4.75703 32.3195C4.75703 31.7927 4.85885 31.3323 5.0625 30.9383C5.26615 30.5421 5.55501 30.2344 5.9291 30.0152C6.3054 29.7939 6.75143 29.6832 7.26719 29.6832C7.78294 29.6832 8.22786 29.7939 8.60195 30.0152C8.97826 30.2344 9.26823 30.5421 9.47188 30.9383C9.67552 31.3323 9.77734 31.7927 9.77734 32.3195C9.77734 32.8419 9.67552 33.3012 9.47188 33.6975C9.26823 34.0915 8.97826 34.3992 8.60195 34.6205C8.22786 34.8396 7.78294 34.9492 7.26719 34.9492ZM7.27383 33.8535C7.50846 33.8535 7.70436 33.7871 7.86152 33.6543C8.01869 33.5193 8.13711 33.3355 8.2168 33.1031C8.2987 32.8707 8.33965 32.6062 8.33965 32.3096C8.33965 32.013 8.2987 31.7484 8.2168 31.516C8.13711 31.2836 8.01869 31.0999 7.86152 30.9648C7.70436 30.8298 7.50846 30.7623 7.27383 30.7623C7.03698 30.7623 6.83776 30.8298 6.67617 30.9648C6.5168 31.0999 6.39616 31.2836 6.31426 31.516C6.23457 31.7484 6.19473 32.013 6.19473 32.3096C6.19473 32.6062 6.23457 32.8707 6.31426 33.1031C6.39616 33.3355 6.5168 33.5193 6.67617 33.6543C6.83776 33.7871 7.03698 33.8535 7.27383 33.8535ZM10.6971 34.8496V29.7496H12.0684V30.6395H12.1215C12.2145 30.3229 12.3705 30.0839 12.5896 29.9223C12.8088 29.7585 13.0611 29.6766 13.3467 29.6766C13.4175 29.6766 13.4939 29.681 13.5758 29.6898C13.6577 29.6987 13.7296 29.7109 13.7916 29.7264V30.9814C13.7252 30.9615 13.6333 30.9438 13.516 30.9283C13.3987 30.9128 13.2913 30.9051 13.1939 30.9051C12.9859 30.9051 12.7999 30.9505 12.6361 31.0412C12.4745 31.1298 12.3462 31.2537 12.251 31.4131C12.158 31.5725 12.1115 31.7562 12.1115 31.9643V34.8496H10.6971ZM15.8311 34.9459C15.5057 34.9459 15.2157 34.8895 14.9612 34.7766C14.7066 34.6615 14.5052 34.4921 14.3569 34.2686C14.2108 34.0428 14.1377 33.7617 14.1377 33.4252C14.1377 33.1419 14.1898 32.9039 14.2938 32.7113C14.3978 32.5187 14.5395 32.3638 14.7188 32.2465C14.8981 32.1292 15.1017 32.0406 15.3297 31.9809C15.5599 31.9211 15.8012 31.879 16.0536 31.8547C16.3502 31.8237 16.5892 31.7949 16.7708 31.7684C16.9523 31.7396 17.084 31.6975 17.1659 31.6422C17.2478 31.5868 17.2887 31.5049 17.2887 31.3965V31.3766C17.2887 31.1663 17.2223 31.0036 17.0895 30.8885C16.9589 30.7734 16.773 30.7158 16.5317 30.7158C16.2771 30.7158 16.0746 30.7723 15.9241 30.8852C15.7736 30.9958 15.6739 31.1353 15.6252 31.3035L14.317 31.1973C14.3834 30.8874 14.514 30.6195 14.7088 30.3937C14.9036 30.1658 15.1549 29.9909 15.4625 29.8691C15.7724 29.7452 16.131 29.6832 16.5383 29.6832C16.8217 29.6832 17.0928 29.7164 17.3518 29.7828C17.613 29.8492 17.8443 29.9521 18.0458 30.0916C18.2494 30.2311 18.4099 30.4104 18.5272 30.6295C18.6445 30.8464 18.7032 31.1065 18.7032 31.4098V34.8496H17.3618V34.1424H17.3219C17.24 34.3018 17.1305 34.4423 16.9932 34.5641C16.856 34.6836 16.6911 34.7777 16.4985 34.8463C16.3059 34.9127 16.0834 34.9459 15.8311 34.9459ZM16.2362 33.9697C16.4443 33.9697 16.628 33.9288 16.7874 33.8469C16.9467 33.7628 17.0718 33.6499 17.1625 33.5082C17.2533 33.3665 17.2987 33.2061 17.2987 33.0268V32.4855C17.2544 32.5143 17.1935 32.5409 17.1161 32.5652C17.0408 32.5874 16.9556 32.6084 16.8604 32.6283C16.7652 32.646 16.67 32.6626 16.5749 32.6781C16.4797 32.6914 16.3933 32.7036 16.3159 32.7146C16.1499 32.739 16.0049 32.7777 15.8809 32.8309C15.757 32.884 15.6607 32.9559 15.592 33.0467C15.5234 33.1352 15.4891 33.2459 15.4891 33.3787C15.4891 33.5713 15.5588 33.7185 15.6983 33.8203C15.84 33.9199 16.0193 33.9697 16.2362 33.9697ZM21.215 31.9012V34.8496H19.8005V29.7496H21.1486V30.6494H21.2084C21.3212 30.3528 21.5105 30.1182 21.7761 29.9455C22.0417 29.7706 22.3638 29.6832 22.7423 29.6832C23.0965 29.6832 23.4053 29.7607 23.6687 29.9156C23.9321 30.0706 24.1369 30.2919 24.283 30.5797C24.4291 30.8652 24.5021 31.2061 24.5021 31.6023V34.8496H23.0876V31.8547C23.0899 31.5426 23.0102 31.2991 22.8486 31.1242C22.687 30.9471 22.4645 30.8586 22.1812 30.8586C21.9908 30.8586 21.8226 30.8995 21.6765 30.9814C21.5326 31.0633 21.4197 31.1829 21.3378 31.34C21.2582 31.495 21.2172 31.682 21.215 31.9012ZM27.9146 36.8684C27.4563 36.8684 27.0634 36.8053 26.7358 36.6791C26.4105 36.5551 26.1515 36.3858 25.9589 36.1711C25.7663 35.9564 25.6412 35.7151 25.5837 35.4473L26.8919 35.2713C26.9317 35.3731 26.9948 35.4683 27.0812 35.5568C27.1675 35.6454 27.2815 35.7162 27.4231 35.7693C27.567 35.8247 27.7419 35.8523 27.9478 35.8523C28.2554 35.8523 28.5089 35.7771 28.7081 35.6266C28.9095 35.4783 29.0103 35.2292 29.0103 34.8795V33.9465H28.9505C28.8885 34.0882 28.7955 34.2221 28.6716 34.3482C28.5476 34.4744 28.3882 34.5773 28.1935 34.657C27.9987 34.7367 27.7662 34.7766 27.4962 34.7766C27.1133 34.7766 26.7646 34.688 26.4503 34.5109C26.1382 34.3316 25.8892 34.0583 25.7032 33.6908C25.5195 33.3212 25.4276 32.8541 25.4276 32.2896C25.4276 31.7119 25.5217 31.2294 25.7099 30.842C25.898 30.4546 26.1481 30.1646 26.4603 29.9721C26.7746 29.7795 27.1188 29.6832 27.4929 29.6832C27.7784 29.6832 28.0175 29.7319 28.2101 29.8293C28.4026 29.9245 28.5576 30.044 28.6749 30.1879C28.7944 30.3296 28.8863 30.469 28.9505 30.6062H29.0036V29.7496H30.4081V34.8994C30.4081 35.3333 30.3019 35.6963 30.0894 35.9885C29.8769 36.2807 29.5825 36.4998 29.2062 36.6459C28.8321 36.7942 28.4015 36.8684 27.9146 36.8684ZM27.9444 33.7141C28.1724 33.7141 28.365 33.6576 28.5222 33.5447C28.6815 33.4296 28.8033 33.2658 28.8874 33.0533C28.9737 32.8386 29.0169 32.5818 29.0169 32.283C29.0169 31.9842 28.9748 31.7252 28.8907 31.5061C28.8066 31.2847 28.6849 31.1132 28.5255 30.9914C28.3661 30.8697 28.1724 30.8088 27.9444 30.8088C27.712 30.8088 27.5161 30.8719 27.3567 30.998C27.1974 31.122 27.0767 31.2947 26.9948 31.516C26.9129 31.7374 26.872 31.993 26.872 32.283C26.872 32.5774 26.9129 32.832 26.9948 33.0467C27.0789 33.2592 27.1996 33.4241 27.3567 33.5414C27.5161 33.6565 27.712 33.7141 27.9444 33.7141ZM33.8579 34.9492C33.3333 34.9492 32.8817 34.843 32.5032 34.6305C32.1269 34.4158 31.8369 34.1125 31.6333 33.7207C31.4297 33.3267 31.3278 32.8607 31.3278 32.3229C31.3278 31.7982 31.4297 31.3378 31.6333 30.9416C31.8369 30.5454 32.1236 30.2366 32.4933 30.0152C32.8651 29.7939 33.3012 29.6832 33.8015 29.6832C34.1379 29.6832 34.4511 29.7374 34.7411 29.8459C35.0333 29.9521 35.2879 30.1126 35.5048 30.3273C35.7239 30.5421 35.8944 30.8121 36.0161 31.1375C36.1379 31.4607 36.1987 31.8392 36.1987 32.273V32.6615H31.8923V31.785H34.8673C34.8673 31.5813 34.823 31.4009 34.7345 31.2437C34.6459 31.0866 34.5231 30.9637 34.3659 30.8752C34.211 30.7844 34.0306 30.7391 33.8247 30.7391C33.61 30.7391 33.4196 30.7889 33.2536 30.8885C33.0898 30.9859 32.9614 31.1176 32.8685 31.2836C32.7755 31.4474 32.7279 31.63 32.7257 31.8314V32.6648C32.7257 32.9172 32.7722 33.1352 32.8651 33.3189C32.9603 33.5027 33.0942 33.6443 33.2669 33.7439C33.4396 33.8436 33.6443 33.8934 33.8812 33.8934C34.0383 33.8934 34.1822 33.8712 34.3128 33.827C34.4434 33.7827 34.5552 33.7163 34.6481 33.6277C34.7411 33.5392 34.8119 33.4307 34.8606 33.3023L36.1689 33.3887C36.1024 33.703 35.9663 33.9775 35.7605 34.2121C35.5568 34.4445 35.2934 34.626 34.9702 34.7566C34.6493 34.885 34.2785 34.9492 33.8579 34.9492Z" fill="white"/>
<path id="$" d="M33.1359 35.2V28.2H33.5844V35.2H33.1359ZM34.3254 30.5105C34.3035 30.29 34.2096 30.1186 34.0438 29.9965C33.8779 29.8743 33.6527 29.8133 33.3684 29.8133C33.1751 29.8133 33.012 29.8406 32.8789 29.8953C32.7458 29.9482 32.6438 30.022 32.5727 30.1168C32.5034 30.2116 32.4688 30.3191 32.4688 30.4395C32.4651 30.5397 32.4861 30.6272 32.5316 30.702C32.579 30.7767 32.6438 30.8414 32.7258 30.8961C32.8078 30.949 32.9026 30.9954 33.0102 31.0355C33.1177 31.0738 33.2326 31.1066 33.3547 31.134L33.8578 31.2543C34.1021 31.309 34.3263 31.3819 34.5305 31.473C34.7346 31.5642 34.9115 31.6763 35.0609 31.8094C35.2104 31.9424 35.3262 32.0992 35.4082 32.2797C35.4921 32.4602 35.5349 32.6671 35.5367 32.9004C35.5349 33.2431 35.4474 33.5402 35.2742 33.7918C35.1029 34.0415 34.8549 34.2357 34.5305 34.3742C34.2078 34.5109 33.8186 34.5793 33.3629 34.5793C32.9108 34.5793 32.5171 34.51 32.1816 34.3715C31.848 34.2329 31.5874 34.0279 31.3996 33.7562C31.2137 33.4828 31.1161 33.1447 31.107 32.7418H32.2527C32.2655 32.9296 32.3193 33.0863 32.4141 33.2121C32.5107 33.3361 32.6392 33.4299 32.7996 33.4937C32.9618 33.5557 33.1451 33.5867 33.3492 33.5867C33.5497 33.5867 33.7238 33.5576 33.8715 33.4992C34.021 33.4409 34.1367 33.3598 34.2188 33.2559C34.3008 33.152 34.3418 33.0326 34.3418 32.8977C34.3418 32.7719 34.3044 32.6661 34.2297 32.5805C34.1568 32.4948 34.0492 32.4219 33.907 32.3617C33.7667 32.3016 33.5944 32.2469 33.3902 32.1977L32.7805 32.0445C32.3083 31.9297 31.9355 31.7501 31.6621 31.5059C31.3887 31.2616 31.2529 30.9326 31.2547 30.5187C31.2529 30.1797 31.3431 29.8835 31.5254 29.6301C31.7095 29.3767 31.962 29.1789 32.2828 29.0367C32.6036 28.8945 32.9682 28.8234 33.3766 28.8234C33.7922 28.8234 34.1549 28.8945 34.4648 29.0367C34.7766 29.1789 35.019 29.3767 35.1922 29.6301C35.3654 29.8835 35.4547 30.177 35.4602 30.5105H34.3254Z" fill="white"/>
</g>
</g>
</g>
</g>
</g>
</g>
</g>
</g>
</g>
<defs>
<filter id="filter0_d_24_68419" x="-131.668" y="-383.5" width="600" height="613" filterUnits="userSpaceOnUse" color-interpolation-filters="sRGB">
<feFlood flood-opacity="0" result="BackgroundImageFix"/>
<feColorMatrix in="SourceAlpha" type="matrix" values="0 0 0 0 0 0 0 0 0 0 0 0 0 0 0 0 0 0 127 0" result="hardAlpha"/>
<feOffset dy="40"/>
<feGaussianBlur stdDeviation="40"/>
<feComposite in2="hardAlpha" operator="out"/>
<feColorMatrix type="matrix" values="0 0 0 0 0.0392157 0 0 0 0 0.164706 0 0 0 0 0.321569 0 0 0 0.35 0"/>
<feBlend mode="normal" in2="BackgroundImageFix" result="effect1_dropShadow_24_68419"/>
<feBlend mode="normal" in="SourceGraphic" in2="effect1_dropShadow_24_68419" result="shape"/>
</filter>
<clipPath id="clip0_24_68419">
<path d="M-51.668 -319.5C-51.668 -332.755 -40.9228 -343.5 -27.668 -343.5H364.332C377.587 -343.5 388.332 -332.755 388.332 -319.5V85.5C388.332 98.7548 377.587 109.5 364.332 109.5H-27.668C-40.9228 109.5 -51.668 98.7548 -51.668 85.5V-319.5Z" fill="white"/>
</clipPath>
<clipPath id="clip1_24_68419">
<rect width="440" height="373.833" fill="white" transform="translate(-51.668 -264.333)"/>
</clipPath>
<clipPath id="clip2_24_68419">
<rect width="44" height="44" fill="white"/>
</clipPath>
</defs>
</svg>
